 <svg  version="1.0" xmlns="http://www.w3.org/2000/svg"  width="900.000000pt" height="900.000000pt" viewBox="0 0 900.000000 900.000000"  preserveAspectRatio="xMidYMid meet">  <g transform="translate(0.000000,900.000000) scale(0.100000,-0.100000)" fill="#bd0065" stroke="none"> <path d="M3297 6853 c-4 -3 -7 -24 -7 -45 l0 -38 50 0 50 0 0 -36 c0 -54 -15 -74 -56 -74 -28 0 -36 -5 -44 -26 -15 -39 4 -68 41 -60 39 8 61 -16 57 -63 -3 -35 -5 -36 -47 -41 -48 -6 -65 -28 -50 -67 7 -19 16 -23 49 -23 22 0 41 -1 42 -2 1 -2 4 -88 7 -193 l6 -190 95 -5 95 -5 3 -37 c3 -33 0 -38 -22 -44 -14 -3 -30 -3 -35 1 -6 3 -20 1 -31 -5 -15 -8 -20 -21 -20 -51 0 -44 9 -51 69 -53 l36 -1 5 -140 5 -140 38 -3 c36 -3 37 -5 37 -41 0 -45 14 -61 55 -61 36 0 55 -15 55 -46 0 -34 -20 -43 -105 -46 l-80 -3 -3 -92 -3 -93 -54 0 -54 0 -3 38 c-3 36 -4 37 -43 37 -39 0 -40 -1 -43 -37 l-3 -38 -50 0 c-45 0 -49 2 -49 24 0 45 -10 56 -51 56 -39 0 -39 0 -39 -40 0 -38 -1 -40 -32 -40 -66 0 -77 -8 -80 -59 l-3 -46 -42 -3 -43 -3 0 43 c0 51 -13 68 -52 68 -26 0 -28 3 -28 39 0 39 1 40 38 43 l37 3 0 50 c0 48 -1 50 -29 53 -38 5 -49 -9 -50 -60 l-1 -43 -52 -3 -53 -3 0 -40 c0 -38 -1 -39 -33 -39 -44 0 -57 -15 -57 -68 l0 -43 -52 3 -53 3 -3 47 c-3 41 -6 49 -28 54 -37 9 -56 -12 -52 -60 3 -40 4 -41 41 -44 36 -3 37 -4 37 -42 l0 -39 53 -3 52 -3 0 -55 0 -55 -50 0 -50 0 -3 53 c-3 57 -14 69 -57 58 -21 -5 -24 -12 -27 -59 l-3 -52 -52 -3 -53 -3 0 50 c0 55 -15 71 -65 71 -24 0 -26 3 -23 38 3 35 5 37 43 42 40 5 40 5 40 49 0 53 -20 71 -59 53 -22 -10 -26 -18 -26 -57 l0 -46 -52 3 -53 3 0 43 c0 47 -13 62 -57 62 -26 0 -28 -3 -28 -39 0 -59 8 -71 46 -71 33 0 34 -1 34 -40 0 -37 -2 -40 -29 -40 -37 0 -49 -15 -53 -70 l-3 -45 -52 -3 -53 -3 0 50 c0 55 -15 71 -64 71 -24 0 -26 4 -26 40 0 38 1 40 33 40 46 0 55 10 59 60 3 44 4 45 38 47 19 1 43 2 53 2 13 1 17 10 17 40 0 39 1 40 37 43 31 3 38 8 44 31 12 45 -5 77 -41 77 -31 0 -36 -9 -42 -75 -3 -28 -6 -30 -53 -35 -50 -5 -50 -5 -53 -42 -3 -35 -5 -38 -36 -38 -43 0 -56 -16 -56 -67 l0 -43 -50 0 -50 0 0 45 c0 48 -16 65 -64 65 -21 0 -25 5 -28 38 -3 34 -6 37 -37 40 -38 4 -51 -9 -51 -49 0 -24 -4 -27 -46 -32 -53 -6 -64 -17 -64 -69 0 -38 0 -38 -40 -38 -39 0 -40 1 -40 36 0 53 -15 74 -53 74 -41 0 -57 -15 -57 -55 0 -42 16 -55 67 -55 l43 0 0 -40 0 -40 -43 0 c-52 0 -67 -13 -67 -60 0 -46 15 -60 61 -60 28 0 38 -5 42 -20 11 -41 -3 -60 -42 -60 -45 0 -61 -14 -61 -55 0 -41 16 -55 61 -55 31 0 38 -4 43 -24 10 -41 -2 -56 -45 -56 -42 0 -63 -23 -57 -63 2 -18 10 -23 45 -25 51 -4 68 -27 58 -78 -5 -31 -9 -34 -43 -34 -43 0 -62 -14 -62 -45 0 -31 19 -45 62 -45 32 0 39 -4 44 -25 3 -14 3 -36 0 -50 -5 -21 -12 -25 -46 -25 -43 0 -64 -22 -58 -63 2 -18 10 -23 45 -25 56 -4 67 -25 60 -109 -3 -48 -1 -67 10 -78 12 -12 60 -15 272 -15 186 0 260 3 269 12 7 7 12 27 12 45 l0 33 55 0 55 0 0 -33 c0 -18 5 -38 12 -45 17 -17 629 -17 646 0 7 7 12 27 12 46 l0 33 53 -3 c49 -3 52 -5 52 -29 0 -60 -3 -59 351 -59 l324 0 0 -50 0 -50 40 0 c39 0 40 -1 40 -33 0 -41 15 -57 55 -57 17 0 36 -5 43 -12 16 -16 15 -73 -1 -86 -7 -6 -49 -12 -92 -14 l-80 -3 -3 -70 c-3 -109 -6 -115 -50 -115 -46 0 -57 -8 -65 -41 -9 -35 7 -47 63 -51 l45 -3 0 -40 0 -40 -45 -3 c-55 -4 -63 -11 -64 -59 -1 -33 -4 -38 -32 -44 -54 -10 -54 -12 -54 -143 0 -135 -7 -153 -56 -143 -43 8 -63 -25 -48 -80 5 -19 13 -23 43 -23 42 0 61 -14 61 -45 0 -30 -19 -45 -57 -45 -39 0 -57 -30 -44 -77 6 -24 13 -29 52 -33 38 -4 44 -8 47 -30 3 -37 -12 -53 -54 -54 -35 -1 -39 -4 -45 -36 -10 -47 4 -70 44 -70 40 0 57 -15 57 -51 0 -25 5 -29 43 -36 41 -8 42 -9 44 -52 1 -24 8 -48 15 -52 21 -14 262 -11 276 3 7 7 12 31 12 55 0 34 4 43 18 44 9 1 22 2 27 4 6 1 16 3 23 3 6 1 12 11 12 23 0 41 18 59 60 59 44 0 60 18 60 68 0 34 -14 42 -71 42 -33 0 -40 4 -45 25 -11 45 1 56 53 53 46 -3 48 -4 53 -37 6 -40 27 -56 63 -47 20 5 27 13 27 30 0 46 10 56 56 56 38 0 44 -3 50 -25 10 -42 -1 -54 -53 -57 -45 -3 -48 -5 -51 -32 -2 -15 -1 -39 2 -52 5 -20 13 -24 44 -24 48 0 62 14 62 61 0 36 2 38 40 44 35 6 40 10 40 34 0 42 17 51 96 51 107 0 104 -3 104 106 l0 94 33 0 c40 0 57 -15 57 -52 0 -30 26 -43 71 -36 19 2 25 10 27 35 4 38 17 50 57 55 28 3 30 6 33 51 l3 47 43 0 c49 0 63 11 68 55 3 26 8 30 36 33 39 4 43 11 51 100 1 8 18 12 51 12 l50 0 0 -43 c0 -50 13 -67 51 -67 31 0 39 15 39 71 l0 39 43 0 c50 0 67 13 67 51 0 25 4 28 46 35 25 3 76 3 113 0 39 -4 79 -3 94 3 24 9 27 16 27 56 l0 45 38 0 c48 0 58 8 69 50 l9 35 74 3 c44 2 78 8 82 15 4 7 8 47 8 89 0 87 8 97 70 94 34 -1 35 -2 40 -51 5 -49 5 -50 42 -53 32 -3 38 0 43 21 4 14 5 38 3 53 -3 26 -7 29 -45 32 -43 3 -43 3 -43 43 l0 40 43 -3 c41 -3 42 -4 45 -40 l3 -38 83 0 c50 0 87 5 94 12 7 7 12 44 12 95 l0 83 50 0 c54 0 56 -2 62 -75 3 -27 6 -30 38 -30 33 0 35 2 40 40 8 56 16 65 60 65 41 0 50 11 50 61 0 27 3 29 39 29 45 0 53 12 44 64 l-6 36 46 0 c54 0 77 19 77 61 0 27 2 29 40 29 36 0 40 -2 40 -26 0 -44 17 -64 55 -64 38 0 55 20 55 64 0 23 4 26 35 26 29 0 37 5 46 27 5 14 9 33 8 42 -4 41 -3 41 130 41 139 0 147 3 153 55 3 27 7 30 38 32 19 1 41 2 48 2 8 1 12 18 12 51 0 50 0 50 33 50 40 0 57 15 57 52 0 29 10 34 75 40 29 3 30 5 33 56 3 52 3 52 36 52 41 0 56 16 49 53 -4 18 -13 29 -29 33 -33 8 -54 -12 -54 -52 l0 -34 -54 0 -55 0 -3 38 c-3 35 -6 38 -45 46 -41 9 -43 11 -43 48 0 35 2 38 29 38 52 0 61 8 61 56 0 39 -3 44 -27 50 -40 10 -58 -7 -61 -60 l-3 -46 -50 0 -49 0 0 45 c0 48 -16 65 -64 65 -24 0 -26 4 -26 40 0 36 2 40 26 40 46 0 64 17 64 61 0 33 -4 41 -26 51 -38 18 -58 0 -62 -53 -4 -48 -13 -59 -54 -59 -26 0 -28 3 -28 43 0 57 -10 68 -64 74 -46 6 -46 6 -46 44 l0 39 43 0 c52 0 67 13 67 57 0 40 -28 58 -75 49 -36 -7 -45 -21 -45 -72 0 -33 -1 -34 -40 -34 l-40 0 0 43 c0 51 -13 67 -55 67 -39 0 -55 -16 -55 -55 0 -42 16 -55 67 -55 l43 0 0 -40 0 -40 -45 0 c-52 0 -65 -16 -65 -79 0 -41 0 -41 -39 -41 l-38 0 -5 50 c-3 28 -8 53 -11 57 -4 3 -29 8 -57 11 -44 4 -50 7 -50 27 0 45 10 55 56 55 37 0 46 4 55 24 19 40 4 74 -35 81 -40 8 -78 -9 -75 -33 1 -9 1 -29 0 -44 -1 -26 -4 -28 -41 -28 l-40 0 0 43 c0 49 -13 67 -48 67 -41 0 -62 -18 -62 -53 0 -44 15 -57 67 -57 l43 0 0 -40 c0 -35 -3 -40 -22 -41 -78 -3 -88 -11 -88 -76 l0 -43 -40 0 -40 0 0 50 c0 56 -15 70 -74 70 -35 0 -36 1 -36 40 l0 40 50 0 c44 0 50 3 56 24 15 62 -11 93 -69 82 -35 -6 -36 -8 -39 -54 l-3 -47 -42 -3 -43 -3 0 43 c0 54 -13 68 -62 68 -38 0 -38 0 -38 40 0 40 0 40 38 40 49 0 62 14 62 67 l0 43 45 0 45 0 0 -49 c0 -35 4 -51 16 -55 26 -10 69 -7 82 6 13 13 16 56 6 82 -4 12 -20 16 -55 16 l-49 0 0 44 0 45 53 3 52 3 3 43 c3 37 0 43 -22 52 -14 5 -39 7 -55 4 -27 -6 -30 -10 -33 -53 l-3 -46 -42 -3 -43 -3 0 45 c0 50 -5 56 -55 62 -37 4 -45 -3 -50 -44 -5 -46 11 -62 61 -62 l45 0 -3 -42 -3 -43 -47 -3 c-47 -3 -48 -4 -48 -35 0 -64 -9 -77 -51 -77 l-39 0 0 43 c0 54 -13 67 -67 67 l-43 0 0 45 0 45 44 0 c52 0 69 16 64 62 -3 32 -4 33 -55 36 l-52 3 -3 -48 -3 -48 -42 -3 -43 -3 0 43 c0 53 -13 69 -51 61 -29 -5 -29 -5 -29 41 0 44 1 46 29 46 36 0 49 15 53 65 3 38 5 40 43 45 34 4 40 9 43 30 2 14 -4 34 -12 45 -12 16 -19 18 -43 10 -22 -8 -29 -18 -33 -45 -4 -31 -9 -35 -38 -38 -36 -4 -44 -16 -46 -71 l-1 -36 -52 -3 -53 -3 0 43 c0 58 -10 70 -51 66 -32 -3 -34 -6 -37 -41 -4 -48 11 -67 55 -67 34 0 34 0 31 -42 -3 -42 -4 -43 -43 -48 -40 -5 -40 -5 -43 -53 l-3 -48 -52 3 -52 3 -5 45 c-5 43 -7 45 -40 50 -33 5 -35 7 -38 48 -3 39 -1 42 22 42 47 0 56 9 56 56 0 39 -3 46 -26 54 -37 14 -52 -2 -56 -58 l-3 -47 -52 -3 -52 -3 -3 53 -3 53 -40 5 c-38 5 -40 7 -43 42 -3 39 -2 40 63 50 16 3 20 11 20 47 0 49 -21 65 -62 50 -19 -7 -23 -16 -23 -53 l0 -45 -52 -3 -53 -3 -5 -40 c-5 -37 -8 -40 -40 -45 -34 -5 -35 -6 -38 -57 l-3 -53 -54 0 -54 0 -3 53 -3 52 -42 3 -43 3 0 44 0 44 43 3 42 3 3 48 3 47 55 0 54 0 0 -45 c0 -47 17 -66 56 -61 29 4 33 90 5 106 -11 5 -24 10 -28 9 -26 -4 -33 4 -33 41 0 39 1 40 34 40 32 0 63 20 50 33 -4 3 -4 18 0 32 6 23 11 25 56 25 l49 0 3 -42 c3 -43 3 -43 43 -43 43 0 52 14 41 61 -5 20 -12 24 -46 24 l-40 0 0 43 c0 53 -13 67 -62 67 -35 0 -38 2 -38 29 0 36 -20 53 -57 49 -25 -3 -28 -7 -28 -38 0 -33 2 -35 37 -38 41 -3 45 -13 40 -74 -4 -34 -7 -38 -31 -38 -36 0 -51 -17 -51 -57 l0 -33 -55 0 -55 0 0 33 c0 42 -15 57 -58 57 l-33 0 3 53 3 52 40 5 c38 5 40 7 40 40 0 34 -1 35 -40 35 -39 0 -40 -1 -43 -37 l-3 -38 -50 0 c-47 0 -49 1 -49 29 0 36 -20 53 -57 49 -25 -3 -28 -7 -28 -38 0 -33 2 -35 40 -40 l40 -5 3 -52 3 -53 -33 0 c-43 0 -58 -15 -58 -57 0 -32 -2 -33 -38 -33 -37 0 -39 2 -48 43 -9 42 -9 42 -56 45 -45 3 -48 5 -50 33 -5 78 -7 74 46 79 55 6 79 28 60 58 -13 21 -79 28 -100 11 -8 -6 -14 -24 -14 -40 0 -27 -3 -29 -40 -29 -36 0 -40 3 -40 24 0 48 -9 56 -62 56 l-49 0 3 53 3 52 46 3 c49 3 59 14 59 70 0 19 5 22 40 22 36 0 40 -2 40 -26 0 -46 17 -64 61 -64 32 0 41 5 50 24 8 17 8 29 0 45 -10 17 -21 21 -62 21 l-51 0 5 33 c6 39 -7 67 -33 67 -35 0 -50 12 -50 40 0 35 -16 48 -65 52 l-40 3 -5 50 c-5 49 -6 50 -41 53 -34 3 -37 6 -43 41 -6 41 -19 51 -66 51 -32 0 -50 -23 -50 -64 0 -24 -4 -26 -40 -26 -39 0 -40 1 -40 33 0 42 -15 57 -57 57 -36 0 -53 -21 -53 -64 0 -24 -4 -26 -40 -26 -39 0 -40 1 -40 33 0 41 -15 57 -55 57 -42 0 -55 -11 -58 -51 -2 -32 -4 -34 -45 -37 -42 -3 -42 -3 -42 30 0 19 -5 39 -12 46 -13 13 -70 17 -81 5z m293 -138 l0 -55 40 0 40 0 0 -40 c0 -45 -14 -56 -55 -46 -21 5 -25 12 -25 46 l0 40 -43 0 c-54 0 -67 13 -67 67 l0 43 55 0 55 0 0 -55z m190 0 l0 -55 41 0 40 0 -3 -42 c-3 -42 -4 -43 -40 -46 l-38 -3 0 -50 0 -49 39 0 40 0 3 47 3 48 49 7 c53 7 66 19 66 61 0 25 3 27 40 27 36 0 40 -2 40 -26 0 -46 17 -64 59 -64 43 0 51 -10 51 -66 l0 -34 -49 0 c-53 0 -61 -8 -61 -61 0 -27 -3 -29 -39 -29 -37 0 -38 1 -47 43 l-9 42 -53 3 -52 3 0 -45 0 -46 -39 0 -40 0 -3 -52 -3 -53 -50 0 -50 0 -3 38 c-4 51 11 67 64 67 l44 0 0 44 0 45 -52 3 -53 3 -3 48 c-3 52 -1 53 76 48 32 -3 32 -2 32 43 l0 45 -52 3 -53 3 -3 53 -3 52 55 0 56 0 0 -55z m191 28 c2 -16 3 -40 1 -55 -3 -26 -6 -28 -52 -28 -54 0 -58 5 -59 73 l0 37 53 0 c51 0 54 -1 57 -27z m-400 -173 c18 0 20 -6 17 -47 l-3 -48 -50 0 c-47 0 -50 1 -56 30 -3 17 -3 36 -1 43 6 17 42 32 60 26 8 -2 23 -4 33 -4z m13 -206 c3 -9 6 -33 6 -55 0 -39 0 -39 40 -39 40 0 40 0 40 -40 0 -40 0 -40 -40 -40 -40 0 -40 0 -40 40 l0 40 -42 0 c-58 0 -72 11 -70 55 2 50 7 55 57 55 30 0 45 -5 49 -16z m386 -40 l0 -55 -52 3 -53 3 -3 39 c-5 59 1 66 58 66 l50 0 0 -56z m-110 -94 c0 -40 0 -40 -40 -40 l-40 0 0 -55 0 -55 40 0 c40 0 40 0 40 39 0 64 6 71 61 71 l49 0 0 -55 0 -55 -55 0 -55 0 0 -45 0 -45 -40 0 c-40 0 -40 0 -40 -39 0 -29 -5 -41 -17 -45 -16 -4 -60 -3 -86 2 -5 1 -7 19 -5 40 l3 37 53 3 52 3 0 45 0 44 -44 0 c-53 0 -68 16 -64 67 l3 38 53 3 52 3 0 40 c0 39 0 39 40 39 40 0 40 0 40 -40z m200 0 l0 -40 50 0 c48 0 49 -1 55 -34 12 -59 0 -76 -50 -76 -48 0 -51 4 -57 75 -3 27 -7 30 -40 33 -40 3 -52 20 -42 58 5 20 12 24 45 24 39 0 39 0 39 -40z m-472 -74 c2 -15 1 -39 -3 -53 -5 -22 -10 -24 -53 -21 -47 3 -47 3 -50 41 -4 52 12 69 62 65 37 -3 41 -6 44 -32z m472 -121 l0 -45 55 0 55 0 0 45 0 45 40 0 40 0 0 -45 0 -45 56 0 55 0 -3 -42 c-3 -41 -4 -43 -39 -46 -44 -4 -69 17 -69 59 0 27 -2 29 -40 29 -39 0 -40 -1 -40 -33 0 -43 -15 -57 -61 -57 -40 0 -49 11 -49 61 0 27 -2 29 -40 29 l-40 0 0 45 0 45 40 0 40 0 0 -45z m580 0 l0 -45 45 0 45 0 0 -39 c0 -41 -13 -51 -67 -51 -21 0 -23 -5 -23 -50 l0 -50 -50 0 -50 0 0 50 0 50 50 0 50 0 0 45 0 45 -50 0 -50 0 0 -39 c0 -33 -4 -40 -26 -45 -46 -12 -64 1 -64 45 l0 39 45 0 45 0 0 45 0 45 50 0 50 0 0 -45z m-669 -85 c-4 -43 -15 -51 -66 -48 -36 3 -40 6 -43 31 -6 51 3 58 60 55 l53 -3 -4 -35z m-301 -100 l0 -50 -40 0 -40 0 0 50 0 50 40 0 40 0 0 -50z m190 0 l0 -50 -40 0 -40 0 0 50 0 50 40 0 40 0 0 -50z m200 0 l0 -50 -39 0 c-35 0 -39 3 -42 28 -8 59 -1 72 42 72 l39 0 0 -50z m190 2 c0 -27 -2 -51 -5 -53 -2 -3 -20 -3 -40 -1 -35 4 -35 5 -35 53 l0 49 40 0 40 0 0 -48z m200 -2 l0 -50 -40 0 -40 0 0 50 0 50 40 0 40 0 0 -50z m-675 -95 c0 -38 -2 -40 -32 -43 -46 -5 -73 13 -73 47 0 38 7 42 60 39 l45 -3 0 -40z m195 19 c13 -32 13 -30 -6 -48 -9 -10 -33 -16 -60 -16 l-44 0 0 -55 0 -55 50 0 c53 0 57 -3 62 -55 3 -26 0 -30 -26 -33 -56 -7 -75 5 -82 48 -6 39 -8 40 -45 40 -38 0 -39 -1 -39 -34 0 -43 -19 -58 -67 -54 -41 3 -50 19 -39 64 6 21 12 24 56 24 l50 0 0 55 0 55 40 0 c39 0 40 1 40 35 0 39 18 54 68 55 26 0 34 -5 42 -26z m189 12 c7 -8 11 -27 9 -43 -3 -25 -8 -28 -41 -31 -21 -2 -45 2 -53 9 -17 14 -18 51 -2 67 17 17 73 15 87 -2z m201 -31 l0 -45 -55 0 -55 0 0 -55 0 -55 -40 0 -40 0 0 55 0 55 40 0 c38 0 40 2 40 29 0 41 24 61 71 61 l39 0 0 -45z m164 39 c11 -4 16 -19 16 -45 l0 -39 50 0 50 0 0 -55 0 -55 45 0 45 0 0 -45 0 -45 55 0 55 0 0 45 0 45 39 0 40 0 6 55 7 55 49 0 49 0 0 -55 0 -55 -55 0 c-54 0 -55 0 -55 -29 0 -53 8 -61 61 -61 l49 0 0 -50 0 -50 45 0 45 0 0 51 0 50 53 -3 52 -3 0 -45 0 -45 -52 -3 c-52 -3 -53 -3 -53 -36 0 -41 -15 -56 -57 -56 l-33 0 0 -54 0 -55 43 -3 c41 -3 42 -4 45 -40 3 -37 4 -38 45 -38 59 0 69 -9 65 -61 l-3 -44 -52 -3 -53 -3 0 -40 0 -39 -45 0 -45 0 0 40 0 40 -49 0 -49 0 -4 48 c-3 26 -3 50 -1 55 2 4 26 7 54 7 l49 0 0 40 0 40 -49 0 c-55 0 -61 7 -61 71 0 39 0 39 -40 39 l-40 0 0 -55 0 -55 40 0 c40 0 40 0 40 -40 0 -40 0 -40 -40 -40 -40 0 -40 0 -40 40 l0 40 -55 0 -55 0 0 -40 0 -40 -45 0 -45 0 0 -55 0 -55 44 0 45 0 3 53 c3 49 5 52 32 55 15 2 39 1 52 -2 21 -6 24 -12 24 -56 l0 -50 40 0 40 0 0 -41 0 -40 -37 3 c-36 3 -38 5 -41 41 l-3 37 -54 0 -54 0 -3 -37 c-3 -37 -4 -38 -45 -41 l-43 -3 0 40 0 41 -50 0 -50 0 0 -39 0 -40 48 -3 47 -3 3 -57 3 -57 42 -3 c41 -3 42 -4 45 -40 l3 -38 -45 0 -46 0 0 -55 0 -55 46 0 45 0 -3 -37 c-3 -37 -4 -38 -45 -41 l-43 -3 0 -45 0 -44 -49 0 -50 0 -3 -52 -3 -53 -42 -3 -43 -3 0 43 c0 53 13 68 57 68 32 0 33 1 33 44 l0 45 -42 3 c-42 3 -43 4 -46 41 l-3 37 45 0 45 0 3 53 3 52 48 3 47 3 0 40 0 39 -50 0 -50 0 0 -40 0 -40 -45 0 -45 0 0 40 0 40 45 0 46 0 -3 58 -3 57 -42 3 c-43 3 -43 3 -43 43 0 39 0 39 -40 39 l-40 0 0 50 c0 55 11 67 55 56 22 -6 25 -11 25 -56 l0 -50 44 0 45 0 3 53 3 52 48 3 47 3 0 40 0 39 -50 0 -50 0 0 -40 0 -40 -46 0 -45 0 3 38 c3 36 4 37 46 40 l42 3 0 55 0 54 50 0 50 0 0 45 0 45 -49 0 -50 0 -3 -42 c-3 -39 -6 -43 -31 -46 -38 -5 -57 14 -57 54 0 33 -1 34 -39 34 -35 0 -39 3 -42 28 -8 59 -1 72 42 72 l39 0 0 -50 0 -50 45 0 45 0 0 50 0 50 50 0 50 0 0 45 0 45 -49 0 -50 0 -3 -42 c-3 -43 -3 -43 -43 -43 -40 0 -40 0 -43 43 l-3 42 45 0 46 0 0 54 0 55 -42 3 c-39 3 -43 6 -46 31 -2 16 -1 35 2 43 6 14 42 19 70 8z m-76 -136 c-3 -53 -3 -53 -39 -56 -33 -3 -36 -6 -45 -45 -9 -41 -10 -42 -56 -45 -43 -3 -48 -1 -54 22 -3 13 -3 34 1 45 5 18 14 21 61 21 l54 0 0 55 0 55 41 0 40 0 -3 -52z m-282 -82 c12 -47 2 -61 -45 -64 -54 -4 -65 6 -57 52 7 35 8 36 51 36 39 0 45 -3 51 -24z m952 -18 c-3 -43 -3 -43 -43 -43 -36 0 -40 2 -43 28 -6 46 4 57 48 57 l41 0 -3 -42z m-1058 -98 l0 -50 -39 0 c-48 0 -55 9 -46 60 7 39 8 40 46 40 l39 0 0 -50z m190 0 l0 -50 55 0 c30 0 55 -3 55 -7 0 -5 3 -17 6 -29 8 -31 -20 -54 -66 -54 -41 0 -50 11 -50 61 0 27 -2 29 -40 29 l-40 0 0 -45 0 -45 40 0 40 0 0 -55 0 -55 55 0 c50 0 55 -2 61 -25 11 -43 -1 -55 -55 -55 -52 0 -61 8 -61 56 0 21 -4 24 -39 24 -39 0 -40 -1 -43 -37 l-3 -38 -50 0 -50 0 0 35 0 35 53 3 52 3 0 55 0 54 -44 0 c-50 0 -69 16 -64 57 3 26 6 28 56 31 l52 3 0 50 0 49 40 0 40 0 0 -50z m1366 26 c3 -14 3 -30 -1 -36 -12 -19 16 -40 52 -40 34 0 34 0 31 -42 -3 -40 -5 -43 -37 -48 -38 -6 -49 -24 -43 -76 4 -32 6 -34 43 -34 39 0 39 0 39 -40 0 -40 0 -40 -40 -40 -40 0 -40 0 -40 40 l0 40 -55 0 -55 0 0 -40 0 -40 -45 0 -45 0 0 39 0 40 -52 3 -53 3 -3 53 c-3 49 -4 52 -31 52 -36 0 -51 17 -51 57 0 32 1 33 40 33 l40 0 0 -45 0 -45 55 0 55 0 0 -55 0 -55 45 0 45 0 0 43 c0 54 -8 65 -50 69 -33 3 -35 5 -38 45 l-3 42 43 3 43 3 3 48 3 47 49 0 c44 0 50 -3 56 -24z m-1646 -116 c0 -34 -4 -41 -25 -46 -58 -14 -99 21 -75 66 8 15 21 20 55 20 l45 0 0 -40z m1818 -102 l-3 -53 -40 0 -40 0 -3 53 -3 52 46 0 46 0 -3 -52z m-2010 -100 l3 -38 -55 0 -56 0 0 33 c0 44 6 48 60 45 44 -3 45 -4 48 -40z m195 29 c3 -7 3 -25 0 -40 -5 -25 -9 -27 -59 -27 l-54 0 0 -55 0 -55 54 0 c52 0 54 -1 60 -31 3 -17 3 -35 0 -40 -3 -5 -30 -9 -60 -9 l-54 0 0 -59 0 -60 53 -3 52 -3 3 -38 3 -38 -53 3 -53 3 -3 38 c-3 36 -4 37 -43 37 -39 0 -39 0 -39 -40 0 -40 0 -40 40 -40 l40 0 0 -56 0 -55 -37 3 -38 3 -3 53 -3 52 -55 0 -54 0 0 40 c0 40 0 40 -40 40 -40 0 -40 0 -40 -40 l0 -40 -55 0 -55 0 0 40 0 40 55 0 55 0 0 60 0 60 -55 0 -55 0 0 40 0 40 54 0 55 0 3 53 3 52 35 0 35 0 3 -52 3 -53 -40 0 c-41 0 -41 0 -41 -39 0 -34 3 -39 27 -44 40 -8 52 1 55 41 l3 37 53 3 52 3 0 48 c0 52 8 61 56 61 19 0 24 5 24 24 0 47 9 56 60 56 30 0 50 -5 53 -13z m1337 -27 c0 -40 0 -40 39 -40 64 0 71 -6 71 -61 l0 -49 44 0 45 0 3 53 3 52 38 3 c52 4 69 -12 65 -62 l-3 -41 -52 -3 -52 -3 -3 -37 c-3 -36 -4 -37 -45 -40 l-43 -3 0 40 0 40 -52 3 -53 3 -3 53 -3 52 -40 0 c-38 0 -39 1 -39 33 0 19 3 37 7 40 3 4 21 7 40 7 32 0 33 -1 33 -40z m590 0 l0 -40 -55 0 -55 0 0 40 0 40 55 0 55 0 0 -40z m-4166 -46 c11 -4 16 -19 16 -50 0 -46 1 -47 65 -56 15 -2 21 -12 23 -41 3 -36 2 -37 -31 -37 -43 0 -55 -14 -59 -70 -3 -44 -4 -45 -40 -48 -36 -3 -38 -6 -44 -43 l-7 -39 -47 0 c-46 0 -49 2 -55 30 -9 43 0 50 62 50 l56 0 -5 50 c-3 28 -8 53 -11 56 -3 3 -27 8 -54 12 -47 7 -48 8 -48 42 0 35 0 35 48 38 41 3 49 7 57 28 6 14 10 39 10 55 0 24 4 29 24 29 13 0 31 -3 40 -6z m1183 -46 c8 -52 9 -53 46 -56 36 -3 37 -4 37 -43 0 -36 -2 -39 -27 -39 -43 0 -57 -14 -56 -57 2 -51 -11 -63 -63 -63 l-44 0 0 -40 0 -40 45 0 c48 0 68 -19 65 -63 -4 -43 -1 -47 40 -47 l40 0 0 50 c0 44 3 50 24 56 14 3 34 3 46 -1 18 -6 21 -13 18 -53 l-3 -47 -42 -3 c-43 -3 -43 -3 -43 -43 0 -38 -1 -39 -35 -39 -36 0 -38 3 -49 52 -5 24 -11 27 -54 30 l-47 3 -3 53 -3 52 -45 0 -44 0 0 40 0 40 45 0 45 0 0 50 c0 54 -15 70 -64 70 -24 0 -26 4 -26 40 0 39 1 40 33 40 43 0 57 15 57 60 0 46 4 50 56 50 l42 0 9 -52z m369 6 c1 -56 8 -64 60 -64 l44 0 0 56 0 55 36 -3 c45 -4 59 -23 50 -71 -7 -35 -9 -37 -46 -37 -40 0 -40 0 -40 -39 l0 -40 -47 -3 -48 -3 -3 -45 c-4 -56 -17 -72 -56 -68 -29 3 -31 6 -34 48 -3 53 -21 70 -74 70 -38 0 -38 0 -38 40 l0 40 43 0 c52 0 67 13 67 60 0 46 6 52 50 48 34 -3 35 -5 36 -44z m758 40 c12 -4 16 -20 16 -55 l0 -49 -39 0 -39 0 -4 46 c-3 39 0 48 17 55 26 10 30 10 49 3z m204 -51 l3 -53 -40 0 c-41 0 -41 0 -41 -39 0 -38 -1 -39 -41 -43 -52 -5 -72 9 -67 47 3 29 6 30 56 33 l52 3 0 48 c0 57 5 63 45 59 29 -3 30 -5 33 -55z m1537 2 l0 -50 -42 -3 c-43 -3 -43 -3 -43 -43 0 -39 0 -39 -39 -39 -43 0 -49 8 -43 52 4 25 8 28 43 28 l39 0 0 48 c0 27 3 52 7 56 4 4 23 6 43 4 l35 -3 0 -50z m189 49 c10 -4 16 -18 16 -39 0 -55 -8 -65 -51 -65 l-39 0 0 49 c0 30 5 51 13 54 18 8 43 8 61 1z m-1614 -121 c0 -10 3 -28 6 -40 6 -22 4 -23 -50 -23 -62 0 -73 10 -62 55 6 22 11 25 56 25 41 0 50 -3 50 -17z m950 -22 c0 -34 -3 -39 -27 -44 -42 -8 -53 1 -53 44 0 39 0 39 40 39 40 0 40 0 40 -39z m588 -3 l3 -38 -55 0 -56 0 0 41 0 40 53 -3 52 -3 3 -37z m192 2 l0 -40 -50 0 -50 0 0 40 0 40 50 0 50 0 0 -40z m-4542 -97 l-3 -58 -37 -3 -38 -3 0 55 c0 58 5 64 53 65 28 1 28 1 25 -56z m390 -5 l3 -58 44 0 45 0 0 -39 0 -40 53 -3 52 -3 3 -52 3 -53 40 0 39 0 0 55 0 55 -40 0 c-40 0 -40 0 -40 40 0 40 0 40 39 40 39 0 40 -1 43 -37 l3 -38 53 -3 52 -3 0 40 0 41 45 0 45 0 0 -40 0 -40 -45 0 -45 0 0 -55 0 -55 44 0 45 0 3 53 3 52 50 0 50 0 0 -50 0 -50 -52 -3 -52 -3 -3 -37 c-3 -36 -4 -37 -45 -40 l-43 -3 0 40 0 41 -55 0 -55 0 0 -41 0 -40 -37 3 c-36 3 -38 5 -41 40 l-3 37 -52 3 -52 3 -3 53 -3 52 -45 0 -44 0 0 -55 0 -55 46 0 45 0 -3 -37 c-3 -37 -4 -38 -45 -41 l-43 -3 0 -45 0 -44 -51 0 -50 0 3 43 3 42 48 3 47 3 0 39 0 39 -47 3 -48 3 0 50 0 50 48 3 47 3 0 39 0 39 -47 3 -48 3 -3 44 c-5 65 1 73 50 69 l43 -3 3 -57z m387 2 l0 -55 -50 0 -50 0 -3 58 -3 58 53 -3 53 -3 0 -55z m734 54 c29 -6 31 -9 31 -49 0 -49 -17 -68 -57 -63 -25 3 -28 7 -31 47 -5 70 0 76 57 65z m419 -33 c2 -19 1 -45 -3 -58 -5 -21 -11 -24 -43 -21 -37 3 -37 3 -40 52 -4 55 7 68 53 64 26 -3 30 -7 33 -37z m772 -21 l0 -60 -40 0 -40 0 0 53 c0 30 3 57 7 60 3 4 21 7 40 7 l33 0 0 -60z m198 -4 l-3 -51 -37 -3 c-36 -3 -38 -6 -44 -43 l-7 -39 -53 0 -54 0 0 -55 0 -55 -41 0 -40 0 3 53 3 52 37 3 c35 3 37 5 40 40 l3 37 58 3 57 3 0 54 c0 48 2 54 23 57 49 8 58 -1 55 -56z m580 2 l3 -57 42 -3 c41 -3 42 -4 45 -40 l3 -38 54 0 54 0 3 38 c3 35 5 37 41 40 l37 3 0 -40 0 -41 -40 0 -40 0 0 -55 0 -55 39 0 40 0 3 53 3 52 50 0 50 0 0 -50 0 -50 -52 -3 -53 -3 0 -38 c0 -33 -4 -39 -24 -43 -37 -7 -56 9 -56 47 l0 35 -54 0 -55 0 -3 -37 c-3 -37 -4 -38 -45 -41 l-43 -3 0 40 0 40 -52 3 -53 3 -3 44 c-4 52 6 61 66 61 l42 0 0 39 0 40 -52 3 -53 3 -3 37 c-5 59 11 80 61 76 l42 -3 3 -57z m390 0 l3 -57 42 -3 c41 -3 42 -4 45 -40 l3 -37 52 -3 52 -3 0 -50 0 -50 -50 0 -50 0 -3 53 -3 52 -45 0 -44 0 0 39 0 40 -52 3 -53 3 -3 52 -3 52 38 4 c67 7 68 7 71 -55z m350 56 c21 -6 23 -12 20 -58 l-3 -51 -40 0 -40 0 -3 49 c-4 61 11 74 66 60z m210 -3 c9 -5 12 -25 10 -57 l-3 -49 -42 -3 c-43 -3 -43 -3 -43 -43 l0 -39 -55 0 -55 0 0 40 0 40 55 0 55 0 0 53 c0 30 3 57 7 60 9 10 55 8 71 -2z m197 -51 l0 -55 -40 0 -40 0 -3 52 c-3 55 4 63 58 60 23 -2 25 -5 25 -57z m385 0 l0 -60 54 0 54 0 7 -39 c6 -37 9 -40 43 -43 35 -3 37 -5 40 -43 5 -52 15 -63 65 -67 41 -3 42 -4 45 -40 l3 -38 -45 0 c-49 0 -66 -16 -66 -64 0 -23 -4 -26 -39 -26 -37 0 -39 1 -45 39 -6 41 -21 51 -78 51 -21 0 -29 6 -34 25 -10 40 1 55 41 55 59 0 75 14 75 65 l0 45 -54 0 -54 0 -7 39 c-6 37 -9 40 -43 43 -36 3 -37 4 -40 47 -5 61 2 71 43 71 l35 0 0 -60z m392 6 c8 -56 18 -66 70 -66 43 0 47 -5 41 -47 -5 -30 -9 -33 -40 -33 -57 0 -73 -14 -73 -66 l0 -45 -37 3 c-36 3 -38 5 -41 43 -5 54 -17 65 -68 65 -40 0 -44 2 -44 24 0 45 10 56 51 56 44 0 59 18 59 74 0 37 11 46 50 43 22 -2 26 -8 32 -51z m-5112 -106 l0 -40 -45 0 -45 0 0 40 0 40 45 0 45 0 0 -40z m770 0 c0 -40 0 -40 -40 -40 -40 0 -40 0 -40 40 0 40 0 40 40 40 40 0 40 0 40 -40z m390 0 c0 -40 0 -40 -40 -40 -40 0 -40 0 -40 40 0 40 0 40 40 40 40 0 40 0 40 -40z m200 0 l0 -40 -55 0 -55 0 0 40 0 40 55 0 55 0 0 -40z m190 0 l0 -40 -50 0 -50 0 0 40 0 40 50 0 50 0 0 -40z m776 15 c11 -44 -1 -55 -56 -55 l-50 0 0 -55 0 -55 -39 0 c-22 0 -42 4 -45 9 -3 4 -2 28 2 52 7 42 9 44 45 47 31 3 37 7 37 27 0 45 10 55 56 55 38 0 44 -3 50 -25z m754 -15 c0 -40 0 -40 -40 -40 -39 0 -40 1 -40 33 0 19 3 37 7 40 3 4 21 7 40 7 32 0 33 -1 33 -40z m780 0 c0 -40 0 -40 -40 -40 -39 0 -40 1 -40 33 0 42 5 47 47 47 32 0 33 -1 33 -40z m390 0 l0 -40 -50 0 -50 0 0 40 0 40 50 0 50 0 0 -40z m200 0 l0 -40 -55 0 -55 0 0 40 0 40 55 0 55 0 0 -40z m190 0 l0 -40 -54 0 -55 0 -3 -52 -3 -53 -37 -3 c-37 -3 -38 -4 -38 -43 0 -35 3 -39 24 -39 45 0 56 -10 56 -51 0 -39 0 -39 -40 -39 l-40 0 0 45 0 45 -55 0 -55 0 0 40 0 40 54 0 55 0 3 53 3 52 38 3 c36 3 37 4 37 43 l0 39 55 0 55 0 0 -40z m-4742 -49 c9 -5 12 -24 10 -52 -3 -43 -4 -44 -39 -47 -34 -3 -37 -6 -43 -43 l-6 -39 -49 0 c-41 0 -51 4 -56 20 -3 10 -1 28 5 40 9 16 21 20 60 20 l50 0 0 48 c0 27 3 52 7 55 9 10 45 8 61 -2z m980 -48 l3 -53 45 0 45 0 -3 -37 c-3 -37 -4 -38 -45 -41 l-43 -3 0 40 0 40 -52 3 -53 3 -3 39 c-5 60 1 68 55 64 l48 -3 3 -52z m556 51 c19 -7 22 -74 4 -92 -7 -7 -27 -12 -44 -12 -31 0 -33 -3 -36 -37 l-3 -38 -52 -3 -53 -3 0 40 0 40 53 3 52 3 3 40 c1 22 5 46 7 53 5 13 42 16 69 6z m204 -28 c2 -15 1 -39 -2 -52 -5 -20 -13 -24 -46 -24 -40 0 -40 0 -40 -39 0 -38 -1 -39 -39 -43 -56 -5 -61 -1 -61 43 l0 39 50 0 50 0 0 48 c0 27 3 52 7 56 4 4 23 6 43 4 30 -3 35 -7 38 -32z m190 -23 l3 -53 55 0 54 0 0 -41 0 -40 -52 3 -53 3 -3 38 c-3 36 -4 37 -42 37 -38 0 -39 -1 -42 -37 l-3 -38 -52 -3 -53 -3 0 40 0 41 55 0 55 0 0 48 c0 58 5 64 45 60 29 -3 30 -5 33 -55z m770 48 c9 -5 12 -24 10 -52 -3 -43 -4 -44 -40 -47 -32 -3 -38 -7 -38 -27 0 -48 -9 -55 -67 -55 l-54 0 3 38 3 37 59 3 58 3 -4 49 c-3 27 -3 52 0 55 8 8 56 6 70 -4z m400 -48 l3 -53 40 0 39 0 0 -41 0 -40 -37 3 c-36 3 -38 5 -41 40 l-3 37 -52 3 -52 3 -3 44 c-4 52 7 62 63 59 l40 -3 3 -52z m947 2 l0 -50 -42 -3 c-43 -3 -43 -3 -43 -42 0 -42 11 -49 63 -42 24 4 27 8 27 43 l0 39 54 0 55 0 3 53 3 52 37 3 c32 3 38 0 43 -21 4 -14 5 -38 3 -53 -3 -26 -7 -29 -45 -32 -40 -3 -42 -4 -45 -40 l-3 -37 -52 -3 -53 -3 0 -45 0 -44 43 0 c54 0 67 -13 67 -66 l0 -43 43 -3 c42 -3 42 -3 42 -43 0 -40 0 -40 -42 -43 -41 -3 -43 -4 -43 -37 0 -57 -7 -65 -61 -65 l-49 0 0 50 0 50 55 0 55 0 0 45 0 45 -55 0 -55 0 0 55 0 55 -45 0 -45 0 0 -55 0 -55 -40 0 -40 0 0 49 c0 52 8 61 56 61 23 0 25 3 22 43 -3 40 -5 42 -38 47 -32 5 -35 8 -38 43 l-3 37 40 0 41 0 0 48 c0 27 3 52 7 56 4 4 23 6 43 4 l35 -3 0 -50z m390 0 l0 -50 -40 0 -40 0 -3 44 c-4 50 8 63 53 59 29 -3 30 -5 30 -53z m385 -1 l0 -55 -37 3 c-36 3 -38 5 -41 42 -5 55 2 66 43 66 l35 0 0 -56z m585 1 l0 -50 -37 -3 -38 -3 0 56 0 56 38 -3 37 -3 0 -50z m-5307 -98 l3 -38 -43 3 c-42 3 -43 4 -46 41 l-3 38 43 -3 c42 -3 43 -4 46 -41z m772 4 c0 -33 -4 -39 -24 -43 -37 -7 -56 9 -56 47 0 34 1 35 40 35 40 0 40 0 40 -39z m1360 -1 l0 -40 -55 0 -55 0 0 -45 0 -45 43 0 c63 0 82 -22 70 -81 -6 -29 -7 -30 -57 -27 l-51 3 -3 53 -3 52 -40 0 -39 0 0 -55 0 -55 -55 0 -55 0 0 43 c0 24 5 48 12 55 7 7 31 12 55 12 l43 0 0 39 c0 38 1 39 40 46 37 6 40 9 40 39 0 43 4 46 62 46 l48 0 0 -40z m198 -3 l3 -38 -53 3 c-47 3 -53 6 -56 26 -6 44 4 53 55 50 48 -3 48 -3 51 -41z m1340 6 c-3 -37 -4 -38 -45 -41 l-43 -3 0 40 0 41 46 0 45 0 -3 -37z m582 -2 c0 -38 -1 -39 -39 -43 -56 -5 -61 -1 -61 43 l0 39 50 0 50 0 0 -39z m390 -1 l0 -40 -55 0 -55 0 0 40 0 40 55 0 55 0 0 -40z m586 15 c11 -44 -1 -55 -56 -55 l-50 0 0 40 0 40 50 0 c45 0 50 -3 56 -25z m174 -15 l0 -40 -45 0 -45 0 0 40 0 40 45 0 45 0 0 -40z m-4912 -87 c3 -40 5 -43 32 -43 52 0 60 -8 60 -61 l0 -49 -45 0 -45 0 0 -45 0 -45 44 0 45 0 3 43 3 42 50 0 50 0 0 -40 0 -40 -52 -3 -52 -3 -3 -47 -3 -47 -42 -3 -43 -3 0 -44 0 -44 43 -3 c38 -3 42 -6 45 -32 6 -52 -5 -76 -36 -76 -39 0 -52 17 -52 66 l0 43 -52 3 -53 3 0 40 0 40 53 3 52 3 0 50 0 49 -55 0 -55 0 0 -51 0 -50 -37 3 c-38 3 -38 3 -41 51 l-3 47 40 0 c41 0 41 0 41 39 0 44 10 51 71 51 l39 0 0 55 0 55 -55 0 -55 0 0 -55 0 -55 -39 0 c-40 0 -40 0 -43 -42 l-3 -43 -50 0 c-50 0 -50 0 -53 34 -4 41 8 51 66 51 l42 0 0 43 c0 50 13 67 51 67 25 0 28 4 31 37 3 40 25 53 78 50 22 -2 25 -7 28 -44z m390 0 c3 -41 5 -43 36 -43 43 0 56 -16 56 -67 l0 -43 -45 0 -45 0 0 -45 0 -45 46 0 45 0 -3 -47 -3 -48 -42 -3 -43 -3 0 -45 c0 -43 1 -44 33 -44 44 0 57 -15 57 -67 l0 -43 -39 0 c-44 0 -51 10 -51 71 l0 39 -55 0 -55 0 0 -43 c0 -48 -13 -67 -47 -67 -25 0 -37 28 -31 76 3 25 8 29 40 32 36 3 37 5 40 45 l3 42 53 3 52 3 0 50 0 49 -55 0 -55 0 0 -49 c0 -43 -3 -49 -24 -53 -40 -8 -56 8 -56 57 l0 45 39 0 c40 0 40 0 43 43 l3 42 53 3 52 3 0 55 0 54 -55 0 -55 0 0 -55 0 -55 -41 0 -40 0 3 53 3 52 38 3 c36 3 37 5 37 41 0 21 3 41 7 45 4 4 28 6 53 4 l45 -3 3 -42z m370 0 l3 -43 43 0 c53 0 66 -13 66 -67 l0 -43 39 0 c47 0 55 -10 47 -56 -7 -32 -9 -34 -46 -34 -39 0 -40 -1 -40 -34 0 -58 -7 -66 -61 -66 l-49 0 0 50 0 50 55 0 55 0 0 45 0 45 -55 0 -55 0 0 55 0 55 -45 0 -45 0 0 -55 0 -55 -40 0 c-37 0 -40 2 -42 28 -3 67 6 82 55 82 25 0 27 3 27 39 0 43 9 51 55 48 28 -2 30 -5 33 -44z m380 35 c7 -7 12 -27 12 -45 0 -32 1 -33 43 -33 24 0 48 -5 55 -12 7 -7 12 -31 12 -55 0 -40 2 -43 28 -43 41 0 54 -13 50 -51 -3 -31 -6 -34 -40 -37 -36 -3 -37 -4 -40 -50 l-3 -47 -52 -3 -53 -3 0 50 0 51 55 0 55 0 0 45 0 45 -55 0 -55 0 0 55 0 55 -45 0 -45 0 0 -55 0 -55 -51 0 -50 0 3 53 3 52 48 3 47 3 0 39 c0 21 6 41 13 43 22 10 53 7 65 -5z m760 6 c18 -5 22 -13 22 -45 0 -39 0 -39 -40 -39 -40 0 -40 0 -40 39 0 34 8 47 30 50 3 0 15 -2 28 -5z m765 0 c35 -6 37 -8 37 -45 0 -39 0 -39 39 -39 44 0 51 -10 51 -71 0 -39 0 -39 39 -39 61 0 71 -7 71 -51 0 -39 0 -39 40 -39 l40 0 0 -50 0 -50 -40 0 -40 0 0 -45 0 -45 40 0 c39 0 40 1 40 33 0 44 15 57 67 57 l43 0 0 49 0 50 -52 3 -53 3 0 40 0 40 53 3 52 3 0 55 0 54 -55 0 -55 0 0 -55 0 -55 -41 0 -40 0 3 53 3 52 37 3 c36 3 37 5 40 45 3 47 15 53 74 42 32 -6 34 -8 34 -45 0 -39 1 -40 33 -40 44 0 57 -15 57 -67 l0 -43 -45 0 -45 0 0 -45 0 -45 44 0 45 0 3 43 3 42 50 0 c54 0 63 -11 51 -61 -6 -21 -12 -24 -56 -24 l-49 0 -3 -47 -3 -48 -42 -3 -43 -3 0 -44 0 -44 43 -3 42 -3 3 -52 3 -53 54 0 54 0 3 53 3 52 37 3 c36 3 37 5 40 45 3 42 3 42 43 42 40 0 40 0 43 -42 l3 -43 43 0 c53 0 68 -16 64 -67 l-3 -38 -52 -3 -52 -3 -3 -42 c-3 -42 -3 -42 -43 -42 -40 0 -40 0 -43 43 -3 42 -3 42 -43 42 -37 0 -39 -2 -39 -29 0 -40 -24 -61 -70 -61 l-39 0 -3 -47 -3 -48 -42 -3 -43 -3 0 -45 0 -44 39 0 c44 0 51 -10 51 -70 l0 -39 53 -3 52 -3 3 -37 3 -38 -55 0 -56 0 0 40 0 40 -45 0 -45 0 0 -40 0 -40 -56 0 -55 0 3 38 3 37 53 3 52 3 0 55 0 54 -55 0 -55 0 0 -55 0 -55 -40 0 c-40 0 -40 0 -40 -40 0 -36 3 -40 24 -40 48 0 56 -9 56 -62 l0 -49 -37 3 -38 3 -3 53 -3 52 -54 0 -54 0 -3 -52 -3 -53 -42 -3 -43 -3 0 -44 0 -44 43 -3 c42 -3 42 -3 42 -43 0 -39 -1 -40 -34 -38 -38 1 -51 15 -51 56 0 26 -2 27 -50 27 -48 0 -49 1 -56 34 -8 48 0 56 56 56 l49 0 3 53 3 52 43 3 c42 3 42 3 42 43 l0 39 -45 0 -45 0 0 -40 0 -40 -55 0 -55 0 0 -56 0 -55 -37 3 -38 3 0 50 0 50 38 3 c31 3 37 7 37 27 0 47 9 55 61 55 l49 0 0 55 0 55 -55 0 -55 0 0 -55 0 -55 -40 0 c-40 0 -40 0 -40 -40 l0 -40 -55 0 -55 0 0 40 0 40 -45 0 -45 0 0 -40 0 -40 -50 0 -50 0 0 40 0 40 50 0 50 0 0 55 0 55 -49 0 -50 0 -3 -52 -3 -53 -42 -3 -43 -3 0 43 c0 53 13 68 57 68 32 0 33 1 33 44 l0 45 -42 3 -43 3 -3 48 -3 47 45 0 46 0 0 -50 0 -50 50 0 50 0 0 49 0 50 -47 3 -48 3 -3 43 -3 42 -44 0 -44 0 -3 -42 c-3 -42 -4 -43 -38 -43 -31 0 -35 3 -41 30 -8 45 -1 55 42 55 l38 0 3 53 3 52 42 3 c42 3 42 3 45 45 l3 42 48 3 47 3 0 50 0 49 -50 0 -50 0 0 -51 0 -50 -42 3 -43 3 -3 48 -3 47 45 0 45 0 3 43 3 42 47 3 47 3 3 52 c3 56 14 65 64 53 21 -6 24 -12 24 -56 l0 -50 -45 0 -45 0 0 -45 0 -45 46 0 45 0 -3 -47 -3 -48 -42 -3 -43 -3 0 -44 0 -44 43 -3 42 -3 3 -52 3 -53 55 0 54 0 0 39 c0 59 8 71 45 71 33 0 34 2 37 43 l3 42 53 3 52 3 0 50 0 49 -51 0 -50 0 3 43 3 42 48 3 47 3 0 55 0 54 -55 0 -55 0 0 -55 0 -55 -40 0 -40 0 0 43 c0 50 13 67 52 67 26 0 28 3 28 38 0 55 4 57 73 46z m1175 -6 c7 -7 12 -27 12 -44 0 -33 1 -33 53 -36 l52 -3 3 -52 3 -52 37 -3 c36 -3 37 -4 40 -45 l3 -43 55 0 54 0 0 -49 0 -50 38 -3 c36 -3 37 -4 40 -45 l3 -43 -40 0 -41 0 0 -55 0 -55 40 0 40 0 0 -46 0 -45 -37 3 c-37 3 -38 4 -41 46 l-3 42 -55 0 -55 0 3 -42 3 -43 53 -3 52 -3 0 -50 0 -50 -52 3 -53 3 -3 46 c-3 46 -4 47 -42 53 -39 6 -40 7 -40 46 l0 40 -55 0 -55 0 0 55 0 55 -44 0 -45 0 -3 -52 -3 -53 -48 -3 -48 -3 3 53 3 53 47 3 47 3 3 42 c3 42 3 42 43 42 40 0 40 0 43 -42 l3 -43 43 0 c53 0 66 -13 66 -67 l0 -43 40 0 40 0 0 43 c0 54 13 67 67 67 l43 0 0 45 0 45 -49 0 c-54 0 -61 8 -61 66 0 33 -1 34 -39 34 l-40 0 -3 -47 -3 -48 -52 -3 -53 -3 0 50 0 51 55 0 55 0 0 45 0 45 -55 0 -55 0 0 55 0 55 -45 0 -45 0 0 -54 0 -55 43 -3 c42 -3 42 -3 42 -43 0 -40 0 -40 -42 -43 l-43 -3 0 -50 0 -49 -50 0 -50 0 0 50 0 50 50 0 50 0 0 45 0 45 -51 0 -50 0 3 53 3 52 48 3 47 3 0 39 c0 28 5 40 18 43 32 8 48 7 60 -5z m392 -33 l0 -45 -40 0 -40 0 0 -55 0 -55 -55 0 -55 0 0 39 c0 64 6 71 61 71 l49 0 0 39 c0 41 7 47 58 50 20 1 22 -4 22 -44z m388 -2 l3 -43 -40 0 c-41 0 -41 0 -41 39 0 42 10 51 50 48 22 -2 25 -7 28 -44z m186 41 c11 -4 16 -19 16 -44 0 -38 0 -39 43 -42 l42 -3 0 -50 0 -50 -42 -3 -43 -3 0 55 0 56 -40 0 c-40 0 -40 0 -40 38 0 21 3 42 7 45 8 9 36 9 57 1z m206 -39 l0 -45 -50 0 -50 0 0 38 c0 21 3 42 7 45 3 4 26 7 50 7 l43 0 0 -45z m-5686 -54 c4 -5 7 -22 7 -38 3 -52 9 -63 37 -63 41 0 54 -13 50 -51 -3 -31 -6 -34 -40 -37 l-38 -3 0 45 0 46 -54 0 c-47 0 -54 3 -60 23 -9 36 -7 55 10 71 17 17 79 22 88 7z m181 -46 l0 -50 -42 -3 -43 -3 0 43 c0 53 15 70 55 66 29 -3 30 -5 30 -53z m183 43 c7 -7 12 -31 12 -55 l0 -43 -45 0 -45 0 0 -45 0 -45 46 0 45 0 -3 -47 -3 -48 -42 -3 -43 -3 0 -44 0 -44 43 -3 42 -3 3 -52 3 -53 -39 0 c-45 0 -52 10 -52 71 l0 39 -50 0 -50 0 0 -36 c0 -48 -16 -74 -44 -74 -33 0 -48 22 -44 67 3 37 4 38 46 41 l42 3 0 44 0 44 -42 3 -43 3 -3 48 -3 47 45 0 45 0 3 43 3 42 48 3 47 3 0 48 c0 26 3 51 7 54 11 11 58 8 71 -5z m2146 -4 c9 -22 7 -67 -3 -82 -5 -9 -24 -12 -52 -10 -41 3 -44 5 -47 35 -5 51 12 73 57 73 26 0 41 -5 45 -16z m196 -10 c6 -14 10 -39 10 -55 0 -25 4 -29 28 -29 41 0 54 -13 50 -51 -3 -31 -6 -34 -40 -37 l-38 -3 0 45 0 46 -54 0 c-58 0 -66 8 -66 71 0 35 6 39 57 39 37 0 45 -4 53 -26z m2312 9 c3 -10 3 -35 0 -56 l-4 -38 -52 3 -51 3 -3 39 c-5 59 1 66 57 66 38 0 50 -4 53 -17z m192 1 c3 -9 6 -26 6 -39 0 -45 -10 -55 -55 -55 -47 0 -55 9 -55 64 0 42 5 46 56 46 29 0 44 -5 48 -16z m201 -18 c12 -61 5 -71 -52 -74 -49 -3 -51 -2 -58 26 -3 16 -3 41 1 56 6 24 11 26 55 26 47 0 48 -1 54 -34z m365 -21 l0 -55 -45 0 -45 0 0 -45 0 -45 -50 0 -50 0 0 -51 0 -50 -42 3 -43 3 -3 48 -3 47 45 0 45 0 3 43 3 42 48 3 47 3 0 48 c0 26 3 51 7 54 3 4 24 7 45 7 l38 0 0 -55z m-4520 -101 l0 -45 -47 3 c-44 3 -48 5 -51 31 -6 48 3 57 53 57 l45 0 0 -46z m175 1 c0 -40 0 -40 -42 -43 l-43 -3 0 -50 0 -50 -37 3 c-38 3 -38 3 -41 51 l-3 47 40 0 c41 0 41 0 41 38 0 48 6 54 50 50 34 -3 35 -4 35 -43z m389 19 c12 -46 -1 -64 -45 -64 l-39 0 0 -50 0 -50 -50 0 -50 0 0 50 0 50 50 0 50 0 0 38 c0 47 4 52 46 52 26 0 33 -5 38 -26z m386 -20 l0 -45 -37 3 c-35 3 -38 6 -41 37 -4 38 9 51 51 51 26 0 27 -2 27 -46z m200 2 l0 -45 53 -3 c46 -3 52 -6 55 -27 2 -12 1 -34 -2 -48 -6 -22 -11 -24 -54 -21 l-47 3 -3 48 -3 47 -38 0 c-37 0 -39 2 -44 38 -6 49 -3 52 44 52 l39 0 0 -44z m190 -1 l0 -45 -40 0 -40 0 0 45 0 45 40 0 40 0 0 -45z m585 0 c0 -37 -2 -40 -29 -43 -55 -7 -76 5 -76 42 0 43 6 47 60 44 l45 -3 0 -40z m950 0 c0 -40 0 -40 -40 -40 -36 0 -40 2 -43 28 -6 47 4 59 45 55 37 -3 38 -4 38 -43z m775 -1 l0 -45 -37 3 c-35 3 -38 6 -41 37 -4 38 9 51 51 51 26 0 27 -2 27 -46z m195 1 c0 -39 -1 -40 -35 -40 -34 0 -35 1 -38 43 l-3 43 38 -3 c37 -3 38 -4 38 -43z m197 34 c2 -6 2 -27 0 -46 -4 -33 -6 -34 -41 -31 -31 3 -36 7 -39 31 -2 16 -1 35 2 43 6 17 73 19 78 3z m193 -34 c0 -39 -1 -40 -37 -43 l-38 -3 0 46 0 46 38 -3 c36 -3 37 -4 37 -43z m-5485 -95 l0 -50 -50 0 c-45 0 -50 2 -56 26 -4 14 -2 36 5 50 9 20 18 24 56 24 l45 0 0 -50z m2120 0 l0 -50 -49 0 c-53 0 -61 8 -61 59 0 37 6 41 62 41 l48 0 0 -50z m192 28 c2 -13 1 -34 -2 -48 -5 -22 -12 -25 -58 -28 l-52 -3 0 -45 0 -44 -40 0 -40 0 0 -44 c0 -53 -16 -68 -67 -64 -36 3 -38 5 -41 41 -4 51 11 67 64 67 l43 0 3 43 c3 41 4 42 41 45 37 3 44 14 38 61 -5 31 9 41 58 41 43 0 49 -3 53 -22z m390 -15 c7 -56 2 -63 -52 -63 -52 0 -60 8 -60 59 0 37 6 41 61 41 47 0 47 0 51 -37z m558 -14 l0 -50 -37 3 c-38 3 -38 3 -41 51 l-3 47 40 0 41 0 0 -51z m780 0 l0 -50 -37 3 c-38 3 -38 3 -41 51 l-3 47 40 0 41 0 0 -51z m975 21 c12 -56 0 -70 -61 -70 l-54 0 0 34 c0 58 7 66 60 66 46 0 49 -2 55 -30z m190 -20 l0 -45 -50 0 c-49 0 -50 0 -53 33 -5 55 2 63 55 60 l48 -3 0 -45z m195 0 l0 -50 -49 0 c-47 0 -50 2 -56 30 -12 55 0 70 56 70 l49 0 0 -50z m-3975 -95 c0 -40 0 -40 -42 -43 -43 -3 -43 -3 -43 -42 0 -58 -8 -70 -47 -70 l-34 0 3 53 3 52 38 3 c36 3 37 5 37 41 0 47 6 53 50 49 34 -3 35 -4 35 -43z m390 0 c0 -40 0 -40 -42 -43 l-43 -3 0 -43 c0 -52 -16 -69 -62 -64 -33 3 -33 4 -33 53 l0 50 48 3 47 3 0 39 c0 42 9 50 55 47 28 -2 30 -5 30 -42z m775 0 l0 -45 -39 0 -40 0 -3 -52 -3 -53 -50 0 c-48 0 -50 1 -53 29 -2 15 -1 39 2 52 6 21 12 24 56 24 l50 0 0 38 c0 47 4 52 47 52 33 0 33 -1 33 -45z m2508 -2 l3 -42 52 -3 52 -3 0 -50 0 -50 -50 0 -50 0 -3 53 -3 52 -40 0 -39 0 0 46 0 45 38 -3 c36 -3 37 -4 40 -45z m192 2 l0 -45 -40 0 c-40 0 -40 0 -40 39 0 42 8 49 53 50 26 1 27 -1 27 -44z m-5295 -100 l0 -50 -36 -3 c-44 -4 -69 17 -69 57 0 38 19 52 65 49 l40 -3 0 -50z m563 3 l-3 -53 -37 -3 -38 -3 0 49 c0 27 3 52 7 55 3 4 22 7 40 7 l34 0 -3 -52z m970 40 c7 -7 12 -26 12 -43 0 -38 -16 -55 -51 -55 -51 0 -59 8 -59 61 l0 49 43 0 c24 0 48 -5 55 -12z m398 -12 c3 -13 4 -37 2 -52 -2 -24 -8 -30 -32 -32 -15 -2 -39 -1 -52 2 -21 6 -24 12 -24 56 l0 50 50 0 c44 0 50 -3 56 -24z m385 -7 c4 -15 4 -38 2 -53 -5 -23 -10 -26 -49 -26 -52 0 -69 23 -59 77 6 34 7 34 52 31 41 -3 48 -6 54 -29z m391 -4 c5 -16 6 -40 3 -53 -5 -21 -10 -23 -58 -20 -49 3 -52 5 -55 32 -2 15 -1 39 3 53 5 22 10 24 52 21 42 -3 47 -6 55 -33z m2316 12 c2 -11 1 -34 -3 -53 -6 -33 -7 -34 -54 -34 l-49 0 -6 45 c-4 25 -4 50 -1 55 4 6 30 10 58 8 41 -2 53 -7 55 -21z m-3008 -131 l0 -45 53 -3 52 -3 0 -45 0 -45 -52 -3 -53 -3 0 50 0 51 -40 0 -40 0 0 45 0 45 40 0 40 0 0 -44z m390 5 c0 -40 -11 -51 -50 -51 -27 0 -41 23 -34 59 6 28 10 31 45 31 39 0 39 0 39 -39z m190 -1 c0 -45 -14 -56 -55 -46 -21 5 -25 12 -25 46 0 40 0 40 40 40 l40 0 0 -40z m1735 -5 c0 -43 -14 -52 -61 -41 -20 5 -24 12 -24 47 l0 40 43 -3 c42 -3 42 -3 42 -43z m193 22 c7 -37 -7 -67 -32 -67 -45 0 -56 10 -56 52 l0 39 42 -3 c32 -2 44 -8 46 -21z m-2204 -102 c10 -53 0 -65 -55 -65 -43 0 -49 3 -55 24 -13 54 17 87 75 78 24 -3 30 -10 35 -37z m194 -17 l3 -48 39 0 39 0 3 48 3 47 49 3 c27 2 52 0 57 -5 4 -4 5 -27 2 -50 l-6 -43 -53 0 -54 0 0 -45 0 -45 -40 0 -40 0 0 44 0 45 -52 3 c-52 3 -53 4 -56 36 -5 55 2 63 55 60 l48 -3 3 -47z m1532 2 l0 -50 45 0 45 0 0 51 0 50 53 -3 52 -3 0 -45 0 -45 -52 -3 -52 -3 -3 -42 c-3 -42 -3 -42 -45 -45 -43 -3 -43 -3 -43 -42 0 -58 -8 -70 -47 -70 l-34 0 3 53 3 52 38 3 c37 3 37 4 37 47 0 43 0 44 -37 47 -38 3 -38 3 -41 51 l-3 47 40 0 41 0 0 -50z m390 1 l0 -50 43 -3 c42 -3 42 -3 42 -43 0 -40 0 -40 -42 -43 l-43 -3 0 45 0 46 -50 0 -50 0 0 50 0 50 50 0 50 0 0 -49z m198 2 l-3 -48 -52 -3 -53 -3 0 50 0 51 56 0 55 0 -3 -47z m-2334 -149 c12 -4 16 -20 16 -56 l0 -49 -47 3 c-42 3 -49 7 -57 30 -14 41 6 78 43 78 16 0 36 -3 45 -6z m212 -18 c3 -13 4 -37 2 -52 -3 -27 -6 -29 -55 -32 l-53 -3 0 -40 0 -39 49 0 c55 0 61 -7 61 -71 0 -39 0 -39 40 -39 l40 0 0 -45 0 -45 -40 0 c-38 0 -40 -2 -40 -29 0 -53 -8 -61 -61 -61 l-49 0 0 -51 0 -50 -42 3 c-36 3 -44 7 -46 27 -2 12 -1 34 2 47 5 20 13 24 46 24 39 0 39 0 42 43 l3 42 53 3 53 3 -3 42 -3 42 -47 3 c-51 3 -54 7 -60 77 -3 28 -6 30 -43 30 l-40 0 -5 -50 -5 -50 -52 -3 -53 -3 0 -45 0 -44 -40 0 c-36 0 -40 -2 -40 -26 0 -48 -17 -64 -66 -64 l-45 0 3 -52 3 -53 33 3 c43 3 72 -13 72 -41 0 -31 -18 -47 -55 -47 -38 0 -55 16 -55 51 0 24 -5 28 -40 34 l-40 7 0 49 0 49 39 0 c40 0 40 0 43 43 l3 42 52 3 52 3 3 42 c3 41 4 42 41 45 35 3 37 5 37 40 0 53 11 64 69 70 l51 5 0 38 c0 39 0 39 40 39 40 0 40 0 40 39 0 62 7 71 56 71 38 0 44 -3 50 -24z m195 -3 c5 -14 7 -39 4 -55 -6 -26 -10 -28 -55 -28 -55 0 -67 16 -55 76 6 33 8 34 51 34 39 0 46 -3 55 -27z m1527 15 c7 -7 12 -31 12 -55 l0 -43 -39 0 c-64 0 -71 6 -71 61 l0 49 43 0 c24 0 48 -5 55 -12z m200 -31 c4 -50 -11 -67 -59 -67 l-39 0 0 48 c0 27 3 52 7 56 4 4 25 6 48 4 39 -3 40 -4 43 -41z m-1838 -107 c0 -40 0 -40 -40 -40 -40 0 -40 0 -40 40 0 40 0 40 40 40 40 0 40 0 40 -40z m198 -2 l3 -38 -40 0 -41 0 0 41 0 40 38 -3 c35 -3 37 -5 40 -40z m-680 -50 c7 -7 12 -31 12 -55 l0 -43 -49 0 c-35 0 -51 4 -55 16 -11 28 -6 62 10 78 18 19 65 21 82 4z m590 0 c16 -16 15 -60 -1 -82 -10 -13 -24 -17 -57 -14 -44 3 -45 4 -48 42 -2 21 -1 44 2 52 7 18 87 19 104 2z m180 -45 l3 -53 49 0 49 0 3 53 3 52 40 0 40 0 0 -50 0 -50 -42 -3 -43 -3 0 -44 0 -44 43 -3 c42 -3 42 -3 42 -43 0 -36 -3 -40 -28 -43 -38 -5 -57 14 -57 54 l0 34 -50 0 c-49 0 -50 -1 -50 -29 0 -33 -22 -61 -48 -61 -31 0 -44 16 -40 51 3 32 5 34 46 37 l42 3 0 44 0 44 -42 3 c-42 3 -43 4 -46 42 -5 58 2 68 45 64 l38 -3 3 -52z m967 2 l0 -50 -42 -3 -43 -3 0 -44 0 -44 43 -3 c42 -3 42 -3 42 -43 0 -34 -4 -41 -22 -43 -39 -6 -63 15 -63 53 l0 35 -55 0 -55 0 0 -34 c0 -39 -19 -59 -52 -54 -20 3 -23 9 -23 43 0 39 1 40 38 43 33 3 37 6 37 32 0 52 8 60 61 60 l49 0 0 49 c0 54 7 61 55 58 29 -2 30 -4 30 -52z m184 41 c7 -8 11 -32 9 -53 -3 -36 -5 -38 -38 -38 -33 0 -35 2 -38 39 -2 21 -1 44 2 52 7 18 50 18 65 0z m-1721 -199 c7 -8 8 -25 3 -43 -6 -24 -13 -29 -43 -32 -23 -2 -41 3 -52 13 -16 17 -22 56 -9 68 12 12 90 7 101 -6z m395 -8 c5 -9 7 -28 3 -42 -6 -24 -11 -27 -49 -27 -24 0 -48 5 -55 12 -13 13 -16 60 -5 72 13 13 96 2 106 -15z m560 -1 c9 -34 -19 -70 -51 -66 -21 2 -28 9 -30 31 -5 44 4 57 42 57 26 0 35 -5 39 -22z m-673 -118 l0 -50 -40 0 -40 0 0 50 0 50 40 0 40 0 0 -50z m200 -5 l0 -55 33 0 c40 0 57 -15 57 -52 0 -27 2 -28 50 -28 l50 0 0 -54 0 -55 43 -3 c42 -3 42 -3 45 -45 3 -43 3 -43 -30 -43 -43 0 -58 15 -58 57 0 33 0 33 -50 33 -49 0 -50 -1 -50 -29 0 -38 -23 -61 -61 -61 -28 0 -29 -1 -29 -50 l0 -50 -40 0 -40 0 0 50 0 50 39 0 c40 0 40 0 43 43 3 42 3 42 46 45 l42 3 0 55 0 54 -33 0 c-40 0 -57 15 -57 51 0 23 -5 28 -36 34 -42 7 -57 -6 -48 -42 4 -15 0 -25 -14 -32 -29 -16 -77 -14 -92 4 -16 20 -4 65 18 66 9 1 24 2 32 3 8 2 25 3 38 4 20 2 22 7 22 52 l0 50 40 0 40 0 0 -55z m390 5 c0 -46 -2 -50 -24 -50 -13 0 -38 -3 -55 -6 -27 -6 -31 -10 -31 -40 0 -27 -5 -35 -24 -40 -45 -11 -61 -2 -61 36 0 33 2 35 40 40 l40 5 3 53 3 52 55 0 54 0 0 -50z m390 0 l0 -50 -55 0 -55 0 0 50 0 50 55 0 55 0 0 -50z m-1642 -84 c4 -35 -13 -56 -48 -56 -47 0 -60 10 -60 45 0 38 6 41 64 40 37 -1 41 -4 44 -29z m368 26 c40 -26 16 -82 -35 -82 -41 0 -65 22 -57 53 7 30 64 48 92 29z m209 -37 c0 -39 -1 -40 -38 -43 -46 -4 -67 11 -67 49 0 30 17 38 75 35 28 -1 30 -4 30 -41z m744 31 c20 -24 10 -70 -17 -74 -31 -5 -52 15 -52 48 0 39 45 55 69 26z m195 8 c11 -4 16 -19 16 -45 l0 -39 -45 0 c-42 0 -45 2 -45 28 0 31 9 47 30 55 21 8 26 8 44 1z m-854 -139 l0 -55 -40 0 c-36 0 -40 -2 -40 -26 0 -48 -17 -64 -65 -64 l-45 0 0 -50 0 -50 45 0 c35 0 47 -4 56 -21 18 -35 -3 -69 -44 -69 -42 0 -57 15 -57 57 0 32 -2 33 -39 33 -44 0 -48 5 -43 61 4 38 5 39 43 39 36 0 39 2 39 29 0 53 8 61 61 61 l49 0 0 55 0 55 40 0 40 0 0 -55z m-666 -71 c3 -9 6 -29 6 -45 0 -27 2 -29 40 -29 l40 0 0 -50 0 -50 -40 0 -40 0 0 50 0 50 -39 0 c-59 0 -71 8 -71 44 0 42 5 46 56 46 29 0 44 -5 48 -16z m192 -11 c10 -37 -7 -57 -51 -61 -40 -4 -55 8 -55 44 0 30 19 44 62 44 32 0 39 -4 44 -27z m192 -20 l3 -43 -40 0 c-38 0 -71 19 -71 41 0 6 5 19 11 30 8 16 19 19 52 17 42 -3 42 -3 45 -45z m390 0 l3 -43 -40 0 c-23 0 -46 7 -55 16 -18 17 -18 20 -10 52 6 20 12 23 53 20 l46 -3 3 -42z m-770 -176 c4 -36 -13 -57 -48 -57 -45 0 -60 10 -60 39 0 38 19 52 65 49 36 -3 40 -6 43 -31z m181 19 c7 -8 11 -27 9 -43 -3 -25 -8 -28 -41 -31 -21 -2 -45 2 -53 9 -14 12 -19 60 -7 72 12 13 80 7 92 -7z m201 -25 c0 -43 -10 -51 -65 -51 -32 0 -45 13 -45 45 0 25 31 45 71 45 39 0 39 0 39 -39z m390 20 c14 -27 13 -37 -6 -55 -31 -31 -104 -11 -104 29 0 43 89 63 110 26z m-500 -126 l0 -55 -40 0 c-38 0 -40 -2 -40 -29 0 -42 -20 -58 -69 -53 -35 4 -41 7 -41 27 0 47 9 55 61 55 l49 0 0 48 c0 58 3 62 47 62 l33 0 0 -55z m-272 -96 c3 -34 1 -37 -30 -42 -50 -7 -78 7 -78 41 0 39 7 43 60 40 44 -3 45 -4 48 -39z m66 -45 c12 -4 16 -20 16 -55 l0 -49 -39 0 c-39 0 -40 -1 -43 -37 l-3 -38 -52 -3 c-52 -3 -53 -3 -53 25 0 40 17 53 67 53 l43 0 0 49 c0 39 4 51 18 54 27 7 29 7 46 1z m114 -116 c7 -7 12 -25 12 -41 0 -28 -1 -28 -52 -25 -47 3 -53 6 -56 26 -6 40 5 52 46 52 21 0 43 -5 50 -12z"/> <path d="M4640 5460 l0 -50 45 0 45 0 0 -45 0 -45 -45 0 -45 0 0 -55 0 -55 45 0 45 0 0 55 0 55 55 0 55 0 0 45 0 45 40 0 40 0 0 -45 0 -45 55 0 55 0 0 45 0 45 -56 0 -56 0 3 38 c3 60 2 62 -41 62 l-40 0 0 -50 0 -50 -55 0 -55 0 0 50 0 50 -45 0 -45 0 0 -50z"/> <path d="M5030 5075 l0 -55 45 0 45 0 0 55 0 55 -45 0 -45 0 0 -55z"/> <path d="M4540 4590 l0 -40 50 0 50 0 0 40 0 40 -50 0 -50 0 0 -40z"/> <path d="M3780 4980 l0 -40 -55 0 -55 0 0 -60 0 -60 55 0 54 0 3 58 3 57 38 3 c36 3 37 4 37 43 0 39 0 39 -40 39 -40 0 -40 0 -40 -40z"/> <path d="M5030 4685 l0 -55 45 0 45 0 0 55 0 55 -45 0 -45 0 0 -55z"/> <path d="M5030 4305 l0 -45 45 0 45 0 0 -50 0 -50 -45 0 -45 0 0 -45 0 -45 -55 0 -55 0 0 -55 0 -55 -40 0 c-40 0 -40 0 -40 -40 0 -33 -4 -41 -24 -46 -13 -3 -37 -4 -52 -2 -26 3 -29 7 -32 46 l-3 42 -45 0 -44 0 0 55 0 55 -50 0 -50 0 0 -55 0 -55 50 0 50 0 0 -45 0 -45 46 0 45 0 -3 -47 -3 -48 -42 -3 -43 -3 0 -45 c0 -43 1 -44 33 -44 44 0 57 -15 57 -67 l0 -43 55 0 55 0 0 39 c0 59 8 71 45 71 29 0 34 4 40 29 3 15 5 34 3 42 -2 10 11 15 50 17 l52 3 0 -45 0 -45 43 -3 42 -3 3 -52 3 -53 54 0 54 0 3 53 3 52 37 3 c36 3 37 5 40 45 l3 42 52 3 52 3 3 47 3 47 43 3 42 3 0 45 c0 43 -1 44 -33 44 -44 0 -57 15 -57 67 l0 43 -55 0 -55 0 0 -43 c0 -50 -13 -67 -52 -67 -27 0 -28 1 -28 55 l0 55 -56 0 -55 0 3 43 3 42 53 3 52 3 0 50 0 49 -55 0 -55 0 0 45 0 45 -45 0 -45 0 0 -45z m90 -290 l0 -55 54 0 55 0 3 -42 c3 -41 5 -43 38 -48 34 -5 35 -6 38 -53 l3 -48 -38 3 c-38 3 -38 3 -41 50 l-3 47 -52 3 -52 3 -3 43 -3 42 -44 0 -44 0 -3 -42 -3 -43 -50 0 c-54 0 -63 11 -51 61 6 21 12 24 56 24 l50 0 0 55 0 55 45 0 45 0 0 -55z m-200 -196 l0 -50 -37 3 c-38 3 -38 3 -41 51 l-3 47 40 0 41 0 0 -51z m198 4 l-3 -48 -42 -3 -43 -3 0 50 0 51 46 0 45 0 -3 -47z"/> <path d="M5700 4015 l0 -55 45 0 45 0 0 55 0 55 -45 0 -45 0 0 -55z"/> <path d="M1840 4210 l0 -50 50 0 50 0 0 50 0 50 -50 0 -50 0 0 -50z"/> <path d="M4454 6456 c-3 -8 -4 -27 -2 -43 2 -22 9 -29 31 -31 16 -2 35 2 43 9 17 14 18 51 2 67 -17 17 -67 15 -74 -2z"/> <path d="M5234 6066 c-3 -8 -4 -27 -2 -43 3 -25 7 -28 38 -28 32 0 35 2 38 34 2 20 -2 37 -10 42 -21 14 -58 10 -64 -5z"/> <path d="M5248 5899 c-12 -7 -18 -22 -18 -48 0 -49 21 -69 55 -53 21 10 25 19 25 51 0 30 -5 43 -19 51 -23 12 -22 12 -43 -1z"/> <path d="M5442 5899 c-20 -8 -23 -15 -20 -51 3 -43 3 -43 43 -43 l40 0 0 44 c0 49 -21 65 -63 50z"/> <path d="M5790 5660 c0 -44 3 -50 24 -56 61 -15 97 20 82 80 -6 24 -11 26 -56 26 l-50 0 0 -50z"/> <path d="M6380 5301 c-14 -26 -13 -64 2 -79 7 -7 26 -12 43 -12 38 0 55 16 55 51 0 48 -9 59 -51 59 -28 0 -41 -5 -49 -19z"/> <path d="M6568 5295 c-8 -18 -9 -35 -2 -53 8 -24 15 -27 54 -27 39 0 46 3 54 27 7 18 6 35 -2 53 -10 21 -18 25 -52 25 -34 0 -42 -4 -52 -25z"/> <path d="M6766 5304 c-11 -28 -6 -71 8 -83 20 -16 77 -10 89 10 5 9 7 32 3 52 -7 36 -8 37 -50 37 -31 0 -46 -5 -50 -16z"/> </g> </svg> 