<?xml version="1.0" encoding="UTF-8"?>
<svg version="1.1" viewBox="0 0 1082 1492" width="1082" height="1492" xmlns="http://www.w3.org/2000/svg">
<path transform="translate(688,280)" d="m0 0h22l15 2 22 6 14 6 9 7 7 8 6 9 8 16 6 16 5 22 3 22 2 36v24l-3 19-4 13-6 10-8 11-14 15-26 26-6 8-7 9 1 7 5 5v2l4 2 10 13 18 24 7 8 16 20 5 4 4 6 11 12 9 9 7 8 9 10 18 18 11 9 14 12 12 9 6 7 8 7 5 5 4 5 11 9 2 4-1 1h-12l-19-4-13-4-19-5-16-6-12-5-13-6-15-7-10-4-4-3-14-7-7-5-12-6-4-4-14-8-8-6-13-9-17-14-11-10-9-6-7-8-8-9-4-1-2 4-5 5v7l4 8 12 12 7 6 5 6 8 7 11 9 7 6v2l4 2 6 5 7 4 11 9 9 8 5 8v6l-1 1h-13l-15-3-13-2-19-4-10-4-18-6-16-7-9-8-7-4-11-9-3-5-5 1-6 9-2 5v7l2 5 2 9 14 41 4 17 3 13 3 19 5 43 2 28v95l-2 31-5 23-8 16-11 14-8 7-8 11-16 15-12 5-7 1h-13l-11-1-18-6-16-6-16-7-18-11-15-10-17-11-5-4-14-9-10-8-9-6-13-10-11-9-20-16-8-6-11-9-3-2v-2l-5-1-10-8-2-1v-2l-4-2-20-13-7-5-9-5-13-4-8-3-9-1h-13l-17 3-27 10-12 6-7 4-16 8-7 6-15 9-1 1h-11l-4-5-1-3v-10l5-13 7-10 6-10 9-10 8-8 7-8 4-5 8-7 3-4h2v-2h2l2-4 10-9 5-6h2l2-4 10-9 5-5 12-10 8-4 5-1h8l8 4 11 9 3 5 8 8 10 9 14 8 13 6 29 10 19 6 26 6 23 7 16 5 7 3 11 4 16 8 11 6 3 2h5l-5-12-6-15-13-28-6-15-15-33-12-31-13-34-7-21-4-18-1-10v-32l3-17 5-16 9-19 10-16 14-18 10-10 7-8 16-17 9-12 4-6v-8l-1-5v-10l4-15 12-30 11-23 4-10 11-21 10-19 9-15 8-14 9-14 11-14h2l2-4 9-10 10-8 6-8 11-12 7-8 3-4h2l1-3 9-7 16-10 13-6 12-3z" fill="#E45076"/>
<path transform="translate(649,762)" d="m0 0 4 2 6 9 8 9 1 5h2l9 13 6 9 9 15 11 18 13 22 8 16 8 15 6 12 7 15 8 18 7 18 4 14 5 17 3 16 1 24-2 16-4 19-9 25-6 13-8 17-9 17-8 16-13 25-7 11-18 33-7 13-14 24-8 14-9 16-6 10-12 22-12 23-4 13v10l6 10 7 8 24 14 14 6 34 10 13 5 9 6 3 4v7l-7 8-12 5-17 3h-26l-26-2-43-4-40-2-14-3-8-7-4-8-2-6v-21l3-13 5-16 10-28 5-15 4-19 4-24 4-21 4-27 6-35 5-24 4-16 10-30 6-11 9-9 7-8 6-4 7-7 1-2h2v-2l13-10 9-6 8-16 4-11 5-20 2-18 2-49v-45l-3-43-1-15-6-34-6-22-6-20-4-11z" fill="#E45076"/>
<path transform="translate(809,36)" d="m0 0h24l16 3 17 5 16 8 12 8 10 9 11 14 8 17 4 11 3 15v22l-3 19-7 24-10 23-6 11-9 12-8 9-11 9-10 6-10 5-13 4-10 1h-18l-11-1-17-5-16-8-16-10-11-9-15-15-10-15-9-21-3-14v-23l3-17 5-16 7-17 7-14 11-14 5-6 10-8 14-9 12-6 17-5z" fill="#E45076"/>
</svg>
