<?xml version="1.0" encoding="UTF-8"?>
<svg version="1.1" viewBox="0 0 1270 1574" width="1270" height="1574" xmlns="http://www.w3.org/2000/svg">
<path transform="translate(674,291)" d="m0 0h15l23 2 24 7 16 7 15 8 13 10 8 6 7 8 8 10 10 17 6 14 5 16 2 9 2 17v24l-4 31-4 16-3 14-6 19-8 16-8 14-11 13-7 8-11 9-17 12-15 11-5 4h-2v2l-11 9-12 12-8 10h-2l-2 4-10 13-13 17-14 20-12 20-9 16-1 3 4 4 16 6 12 6 3 1v2l5 1 32 16 10 6 16 8 22 13 18 11 17 11 16 11 17 12 9 7 14 11 11 9 7 6 8 7 15 15 7 8 3 4v2l4 2 10 14 11 18 6 13 6 17 1 11v16l-2 18-6 22-6 16-6 17-6 15-4 9-5 10-6 18-3 5-6 16-6 12-4 10-6 14-11 26-3 5-6 16-5 10-10 24-5 11-4 10-12 29-4 13-5 12-6 21-2 13v11l7 20 9 10 5 6 8 7 11 9 13 9 20 9 28 10 10 5 8 7 2 9-3 6-12 6-16 2-33-1-42-10-22-6-29-6-23-5-16-4-14-7-5-6-2-5v-10l2-12 8-24 5-13 4-15 3-12 3-17 1-9 1-2 3-37 2-34 3-78 3-29 3-17 6-24 5-16 14-28 5-9 7-10 4-7 5-6 5-10 1-3v-10l-6-7-7-5-14-7-11-4-7-3-29-10-27-9-42-11-18-6-21-6-21-7-38-14-16-8-15-7-11-6-15-10-11-7-13-11-10-9-10-11-9-13-7-11-10-24-2-5-4-19-2-22 1-21 3-21 4-16 6-16 9-21 8-16 9-16 9-15 10-16 15-23 7-11 12-19 6-11 22-40 11-24 12-27 4-8-23 3-32 8-14 4-13 6h-2l-2 6-5 9-10 17-20 40-6 16-12 34-6 19-9 36-1 9-2 9-2 10-3 49-3 27-3 13-5 1-5-8-6-11-6-18-4-9-4-10-4-18-3-11-5-33-2-24v-67l2-22 5-33 3-12 6-22 8-24 5-10 6-17 7-13 7-10 5-6 11-7 9-6 9-5 19-10 15-8 21-9 12-5 21-8 43-15 9-3 17-4 20-6 7-2 11-2 13-3 11-2z" fill="#E55177"/>
<path transform="translate(408,865)" d="m0 0 5 5 4 7 5 5 3 5 7 8 2 1v2h2l5 6 2 1v2l4 2 10 9 15 10 10 7 14 7 6 4 19 9 8 4 24 10 9 4 17 6 6 3-1 8-4 17-5 18-6 23-5 17-3 9-5 14-9 25-14 37-8 16-7 12-5 9-10 13-7 8-13 13-8 7-13 11-7 5h-2v2l-11 8-5 4h-3v2l-11 8-28 21-11 8-17 12-9 7-12 8-11 9-9 6-11 8-17 12-9 6-28 21h-2v2l-5 3h-2v2h-2v2l-11 8-11 9h-2v2l-6 5-4 9-1 9 3 10 7 11 11 12 7 8 6 4v2l4 2 17 10 9 6 11 6v2l5 2 7 7 4 6-1 7-6 7-8 3h-14l-16-2-22-6-15-6-8-4-18-6-10-4-11-4-9-3-5-2-8-2-25-10-12-6-10-9-4-9v-10l2-8 6-11 8-12 3-1 2-4 11-12 2-3h2l2-4 10-13 6-7 9-13 7-9 14-20 10-15 16-23 7-11 12-17 8-12 11-15 8-11 8-10 7-9h2l2-4 3-3h2v-2l5-5 12-11 9-7 14-10 19-11 7-4 13-8 14-11 4-2 2-4 8-13 6-17 4-21 3-36 1-25v-153l2-6z" fill="#E55177"/>
<path transform="translate(851,66)" d="m0 0h35l16 3 14 4 16 8 10 7 9 7 12 12 5 7 10 21 4 14 2 10v24l-4 22-4 14-8 23-9 17-5 9-8 11h-2l-2 4-11 11-15 10-7 4-16 5-14 2h-12l-17-2-14-4-15-6-10-6-11-6-17-14-8-7-2-5h-2l-10-15-9-19-4-16-1-7v-21l4-21 6-20 7-16 10-16 9-11 9-9 10-8 19-11 17-6z" fill="#E55177"/>
<path transform="translate(862,456)" d="m0 0 2 2 11 26 5 16 5 15 4 13 11 28 8 16 4 6 6 5 8 4 12 3 11 2 21 2h67l24-2 12-2 29-3 2-1 16-2 24-4 19-4 31-4 7 1-1 5-7 8-13 10h-2v2l-11 8-7 5-4 4-9 5-11 7-17 9-16 8-20 9-10 4-28 10-17 5-13 4-12 3-14 3-20 4-28 4-10 1h-38l-17-3-11-6-9-7-7-8-5-5v-2h-2l-11-14-9-12-4-5-11-16-8-14v-9l14-13 5-5 7-10 8-14 8-17 6-16 6-19 6-28 2-11z" fill="#E55177"/>
<path transform="translate(674,291)" d="m0 0h15l23 2 24 7 16 7 15 8 13 10 8 6 7 8 8 10 10 17 6 14 5 16 2 9 2 17v24l-4 31-4 16-3 14-6 19-8 16-8 14-11 13-7 8-11 9-17 12-15 11-5 4h-2v2l-11 9-12 12-8 10h-2l-2 4-10 13-13 17-14 20-12 20-9 16-1 3 4 4 16 6 12 6 3 1v2l5 1 32 16 10 6 16 8 22 13 18 11 17 11 16 11 17 12 9 7 14 11 11 9 7 6 8 7 15 15 7 8 3 4v2l4 2 10 14 11 18 6 13 6 17 1 11v16l-2 18-6 22-6 16-6 17-6 15-4 9-5 10-6 18-3 5-6 16-6 12-4 10-6 14-11 26-3 5-6 16-5 10-10 24-5 11-4 10-12 29-4 13-5 12-6 21-2 13v11l7 20 9 10 5 6 8 7 11 9 13 9 20 9 28 10 10 5 8 7 2 9-3 6-12 6-16 2-33-1-42-10-22-6-29-6-23-5-16-4-14-7-5-6-2-5v-10l2-12 8-24 5-13 4-15 3-12 3-17 1-9 1-2 3-37 2-34 3-78 3-29 3-17 6-24 5-16 14-28 5-9 7-10 4-7 5-6 5-10 1-3v-10l-6-7-7-5-14-7-11-4-7-3-29-10-27-9-42-11-18-6-21-6-21-7-38-14-16-8-15-7-11-6-15-10-11-7-13-11-10-9-10-11-9-13-7-11-10-24-2-5-4-19-2-22 1-21 3-21 4-16 6-16 9-21 8-16 9-16 9-15 10-16 15-23 7-11 12-19 6-11 22-40 11-24 12-27 4-8-23 3-32 8-14 4-13 6h-2l-2 6-5 9-10 17-20 40-6 16-12 34-6 19-9 36-1 9-2 9-2 10-3 49-3 27-3 13-5 1-5-8-6-11-6-18-4-9-4-10-4-18-3-11-5-33-2-24v-67l2-22 5-33 3-12 6-22 8-24 5-10 6-17 7-13 7-10 5-6 11-7 9-6 9-5 19-10 15-8 21-9 12-5 21-8 43-15 9-3 17-4 20-6 7-2 11-2 13-3 11-2zm-15 3-1 1-11 1-26 6-9 2-9 3-8 2-10 3-16 3-10 4-16 6-15 5-22 8-19 8-8 4-9 4-8 4-9 4-10 6-12 6-9 6-9 5-8 6v2h-2l-2 5h-2l-12 21-3 11-5 10-6 16-4 13-6 21-1 7-1 1-4 25-1 3-1 13-1 1-1 21v52l1 25 4 31 4 20 6 24 5 12 3 7 3 9 3 6 8 15 3 1 2-7 2-17 2-21 1-7 1-22 2-22 4-19 1-7 1-1 3-15 6-21 3-7 2-8 4-14 4-8 3-10 9-21 9-17 13-26 9-16 7-9 13-5 18-5 7-2 15-3 7-2 12-2 11-1-1 7-8 16-9 21-8 16-8 17-10 17-9 16-6 10-5 9-7 10-10 16-4 5-4 7-6 10v2h-2l-6 11-13 22-7 13-4 10-5 12-7 17-4 18-1 2-3 31v17l3 20 5 18 6 13 4 9 11 18 11 13 5 6 8 7 14 11 11 7 15 10 19 10 18 8 11 5 20 7 19 7 15 5 15 4 8 3 28 8 23 6 25 8 13 4 13 5 12 4 12 5 19 9 10 8 4 7v7l-4 9-4 8v2h-2v2h-2l-7 11-6 9-6 11-3 5-4 10-5 11-6 21-4 13-2 10-3 31-2 28-1 40-3 56-2 26-1 1-4 30-2 9-5 18-5 16-5 12-2 7-3 11v17l5 9 10 4 6 3 17 4 12 2 24 6 12 2 26 7 18 4 11 3 15 3h37l10-4 8-6v-8l-5-5-5-2v-2l-10-5-9-3-16-6-11-4-14-7-10-8-8-6-10-9-5-5-3-4h-2l-2-5-3-1-1-4-3-6-3-13 1-22 3-12 5-16 6-15 5-14 9-21 6-15 15-35 4-8 5-12 5-10 5-13 4-9 4-10 6-13 7-15 3-8 4-8 3-9 3-8 6-14 4-9 3-7v-3h2l4-15 3-6 4-13 3-8 5-17 2-13v-24l-3-13-4-12-7-14-10-16-7-9-4-6h-2l-2-4-9-10-4-5-5-5h-2v-2h-2l-2-4-15-13-10-8-16-13-7-5h-2v-2l-5-3h-2v-2h-3v-2l-9-6-13-9-14-9-7-4-11-7-13-8-11-6-26-14-15-8-17-8-16-8-11-5-10-4-4-4 2-7 9-16 15-23 4-6 11-15v-2h2l7-10v-2h2l8-11 11-12 3-3v-2h2l5-5v-2h2l5-5 10-9 19-14 12-8 13-11 8-7 9-11v-2h2l7-11 3-7 5-9 6-16 5-18 1-8 1-1 3-16 2-12 1-20v-12l-1-15-5-23-3-8-6-15-12-20h-2l-2-4-3-4h-2l-2-4-6-5h-2v-2l-20-14-17-8-17-6-9-3-11-2z" fill="#E28EA4"/>
<path transform="translate(408,865)" d="m0 0 5 5 4 7 5 5 3 5 7 8 2 1v2h2l5 6 2 1v2l4 2 10 9 15 10 10 7 14 7 6 4 19 9 8 4 24 10 9 4 17 6 6 3-1 8-4 17-5 18-6 23-5 17-3 9-5 14-9 25-14 37-8 16-7 12-5 9-10 13-7 8-13 13-8 7-13 11-7 5h-2v2l-11 8-5 4h-3v2l-11 8-28 21-11 8-17 12-9 7-12 8-11 9-9 6-11 8-17 12-9 6-28 21h-2v2l-5 3h-2v2h-2v2l-11 8-11 9h-2v2l-6 5-4 9-1 9 3 10 7 11 11 12 7 8 6 4v2l4 2 17 10 9 6 11 6v2l5 2 7 7 4 6-1 7-6 7-8 3h-14l-16-2-22-6-15-6-8-4-18-6-10-4-11-4-9-3-5-2-8-2-25-10-12-6-10-9-4-9v-10l2-8 6-11 8-12 3-1 2-4 11-12 2-3h2l2-4 10-13 6-7 9-13 7-9 14-20 10-15 16-23 7-11 12-17 8-12 11-15 8-11 8-10 7-9h2l2-4 3-3h2v-2l5-5 12-11 9-7 14-10 19-11 7-4 13-8 14-11 4-2 2-4 8-13 6-17 4-21 3-36 1-25v-153l2-6zm0 3-1 4v160l-2 33-3 28-3 15-4 12-4 9-7 10-2 4-4 2-3 2v2l-4 2-5 3v2l-5 2-10 6-6 3-7 5-11 6-12 8-14 11-6 5-7 8-8 7-9 10-11 14-10 15v2h-2l-1 3-4 4-11 16-7 10-10 15-7 11-12 17-10 15-15 21v2h-2l-7 10-7 9-12 15-7 8-9 10-7 8-7 10-5 9-2 6v11l4 9 5 5 11 7 29 12 12 4 8 2 16 6 14 5 9 4 6 2 11 5 15 5 20 5 10 1h15l8-4 4-5v-6l-5-7h-2v-2h-2v-2l-15-10-9-5h-2v-2l-12-6-6-4-4-4-6-5-6-7h-2v-2h-2l-2-4-10-13-4-7-1-13 2-9 6-8 7-6 11-9 17-13 16-12v-2l5-2 5-3v-2l5-2 14-10 17-12 10-8 5-3 15-11 3-2v-2l4-1 11-8 12-9 3-1v-2l5-2 16-12 5-4 14-10 5-5 10-6 26-20 15-13 13-12 7-7 9-11 9-13 5-10 8-15 4-9 5-12 2-7 5-11 3-10 4-9 4-14 3-7 3-11 4-11 6-22 1-1 2-11 5-18 4-18-5-3-15-6-7-2-13-6-20-8-19-10-18-10-7-4-21-14-13-11-8-7-14-16h-2l-2-5-4-5-1-2h-2l-2-6z" fill="#E28EA4"/>
<path transform="translate(862,456)" d="m0 0 2 2 11 26 5 16 5 15 4 13 11 28 8 16 4 6 6 5 8 4 12 3 11 2 21 2h67l24-2 12-2 29-3 2-1 16-2 24-4 19-4 31-4 7 1-1 5-7 8-13 10h-2v2l-11 8-7 5-4 4-9 5-11 7-17 9-16 8-20 9-10 4-28 10-17 5-13 4-12 3-14 3-20 4-28 4-10 1h-38l-17-3-11-6-9-7-7-8-5-5v-2h-2l-11-14-9-12-4-5-11-16-8-14v-9l14-13 5-5 7-10 8-14 8-17 6-16 6-19 6-28 2-11zm0 6-5 22-2 11-7 23-9 22-8 16-9 14-4 6-8 7-5 4v2l-4 2-1 4 4 9 5 8 9 13 4 7 5 5 4 6h2l2 4 6 8 9 11 6 5 1 2h2v2l14 9 13 4 7 1h36l21-2 2-1 12-1 25-5 1-1 10-2 18-4 1-1 9-2 14-4 9-4 13-4 23-9 16-8 15-7 16-8 15-10 9-5 5-5 11-8 11-9 8-6 3-3v-4h-12l-16 2-15 2-15 4-11 1-2 1-12 1-2 1-36 4-23 3-20 1h-61l-15-1-26-4-13-5-4-2-2-4-6-9-8-17-6-16-5-12-6-19-10-30-6-13z" fill="#E28EA4"/>
<path transform="translate(851,66)" d="m0 0h35l16 3 14 4 16 8 10 7 9 7 12 12 5 7 10 21 4 14 2 10v24l-4 22-4 14-8 23-9 17-5 9-8 11h-2l-2 4-11 11-15 10-7 4-16 5-14 2h-12l-17-2-14-4-15-6-10-6-11-6-17-14-8-7-2-5h-2l-10-15-9-19-4-16-1-7v-21l4-21 6-20 7-16 10-16 9-11 9-9 10-8 19-11 17-6zm11 1-17 2-17 5-16 8-11 7-10 8-3 3v2h-2l-9 11-8 12-7 14-5 13-2 5-5 23-1 7v21l2 13 5 14 5 11 9 14 11 13 3 1v2l13 10 10 7 12 7 16 7 14 4 6 1h32l7-1 8-3 10-4 11-7 8-5 7-8 10-11 7-10 6-12 6-11 7-21 5-18 2-10 1-13v-14l-2-13-4-15-5-12-5-9-7-9-13-13-10-7-7-4-12-6-11-4-11-3-19-2z" fill="#E28EA4"/>
</svg>
