<?xml version="1.0" encoding="UTF-8"?>
<svg version="1.1" viewBox="0 0 1604 1538" width="1604" height="1538" xmlns="http://www.w3.org/2000/svg">
<path transform="translate(677,243)" d="m0 0h36l36 2 29 3 24 5 17 4 13 5 16 8 11 6 15 10 13 10 9 7 16 16 12 18 8 16 5 13 5 23 2 17v18l-2 22-3 19-6 26-5 15-10 19-9 12-8 10-9 9-13 10-12 9-11 8-13 11h-2l-2 4-10 9-7 8-12 14-1 2h-2l-2 5-8 10-6 8-14 20-12 18-10 17-3 7 1 4 8 5 10 7 10 5 10 6 11 6 19 10 10 6 17 10 15 9 17 11 16 11 22 15 26 20 10 8 12 10 8 7 11 10 8 7 17 17 7 8 12 12 4 6 10 13 11 17 8 16 5 12 12 36 8 31 6 19 5 18 5 16 5 22 8 30 8 28 4 16 9 35 8 29 6 24 8 22 8 20 5 9 6 8 6 5 12 5 16 3h31l26-4 21-6 14-5 9-3 7-2h9l6 3 2 3v9l-8 16-13 13-7 6-19 12-11 6-16 8-15 7-17 7-22 12-14 6-19 10-15 4h-10l-8-4-6-7-5-9-7-21-7-23-11-25-8-16-9-15-12-19-9-12-11-16-10-15-3-5-20-26-6-8-14-22-7-10-12-21-8-16-6-14-8-28-4-23-3-35-4-16-4-9-6-10-6-7-8-7-16-11-17-10-15-8-23-11-23-10-42-16-34-12-20-8-18-6-30-12-21-9-19-9-23-13-14-9-18-13-9-9-7-6-18-22-10-17-7-15-5-15-4-18-1-6v-38l4-25 5-17 8-20 7-15 7-13 9-15 9-14 9-13 4-7 12-17 10-16 11-18 4-8 8-14 8-15 8-18 6-13 14-36 7-19 6-18 4-11-1-3-15-3-31-3-26-4-31-1-18 1-10 3-9 6-13 11-8 7-15 15-8 7-7 6-14 16-9 11-10 12-7 10-6 8-10 15-5 9-7 11-7 12-21 42-4 11-7 17-6 13-4 8-2 3h-4l-2-22-2-18v-25l3-36 4-20 3-16 3-15 10-31 8-21 11-24 5-9 4-10 9-15 6-9 5-9 8-10 6-8 7-9 10-11 7-8 10-11 5-5 11-8 11-5 25-6 23-3 7-2 31-4 36-3z" fill="#E45077"/>
<path transform="translate(505,784)" d="m0 0 3 3 4 17 5 13 8 16 9 16 10 13 9 10 4 4v2l4 2 8 8 8 7 15 11 16 10 11 7 16 8 14 8v5l-8 13-10 18-7 10-9 13-5 10-13 20-10 15-10 13-10 14-9 12-4 6h-2l-2 4-13 17-13 15-3 4h-2l-2 4-10 10h-2v2l-11 9-12 10-19 13-8 6-21 14-14 8-13 8-3 3-11 6-14 9-15 9-11 6-13 8-15 8-34 20-11 6-25 14-8 5-11 7-19 12-14 10-10 9-7 8-4 9-2 6v20l5 21 5 15 3 5 4 10 9 15 16 22 6 10 1 3v7l-3 5-6 4h-11l-11-4-8-5-11-8-8-8-8-7-20-20-2-5-4-2-6-6v-2h-2l-7-8-10-9-9-8-5-5-13-11-11-10-5-9-1-5v-8l4-10 6-8 14-13 11-7 9-8 11-8 16-15h2l2-4 16-17 18-21 10-13 11-13 7-8 12-14 9-11 14-17 10-10 7-8 4-4h2v-2l16-14 20-15 11-7 14-8 21-10 16-8 13-7 14-12 9-10 14-21 4-8 4-7 9-19 8-19 6-13 3-9 7-20 9-26 4-13 5-16 10-31 4-13 11-34 6-17 2-9z" fill="#E45077"/>
<path transform="translate(962,39)" d="m0 0h34l12 2 19 6 16 8 6 4 5 4 11 9 10 12 6 9 5 11 5 15 2 11v29l-5 25-9 27-8 16-9 15-14 17-11 10-15 9-12 5-12 3-11 1h-12l-13-1-17-5-11-5-16-8-16-11-10-9-5-5-9-10-9-15-6-12-4-14-1-7v-28l1-11 5-18 8-20 8-15 7-10 10-12 14-11 9-6 13-7 13-5 7-1 1-1z" fill="#E45077"/>
<path transform="translate(1356,371)" d="m0 0h4l-1 7-4 10-8 15-6 11-7 10-7 11-18 24-8 9-5 7h-2l-2 4-13 13-7 8-8 7-13 13-11 9-8 7-16 13-13 10-18 13-22 13-14 8-17 8-16 6-11 2h-16l-22-7-10-5-15-7-16-9-17-10-12-9-10-7-14-11-6-5-10-8-4-4 1-7 6-14 6-17 5-19 5-29 1-11v-39l-2-12v-6l5 2 10 11 9 11 11 12 7 8 12 13 9 11 10 11 7 8 10 11 8 7 8 8 8 6 10 5 11 1 13-2 17-5 20-7 22-9 17-8 15-8 14-8 11-6 16-9 9-6 11-6 19-12 33-22 21-13z" fill="#E45077"/>
</svg>
