<?xml version="1.0" encoding="UTF-8"?>
<svg version="1.1" viewBox="0 0 1454 1430" width="1454" height="1430" xmlns="http://www.w3.org/2000/svg">
<path transform="translate(1073,242)" d="m0 0h20l13 3 14 5 11 6 12 9 12 13 11 19 6 18 3 15v39l-4 20-6 21-7 18-8 16-6 11-11 18-8 10-21 21-11 9-7 6-19 14-16 12-7 4-9 7-10 8-11 9-13 12-8 7-11 10-2 5 1 4 6 10 10 16 8 15v3l3 1 8 13 4 6 8 11 3 5v2h2l7 11 14 15 4 6 10 9 15 16 5 6 2 5v3h-10l3 8 7 7 7 8 21 21 7 8 16 20 12 16 7 11 8 14 7 14 5 11 5 15 3 20v24l-4 18-5 14-5 11-8 16-8 14-11 18-14 22-8 14-11 15-6 10-12 18-23 34-12 16-16 24h-2l-2 5-6 9-10 14-10 15-13 21-4 8-4 11v11l8 13 6 5 14 10 9 6 19 8 12 4 24 6 7 3 10 3 7 8v8l-3 5-9 6-10 4-15 3h-26l-26-3-47-7-14-3-27-4-16-4-10-6-4-5-3-7v-16l8-19 8-14 5-11 9-23 10-27 5-23 5-21 4-16 4-17 4-20 6-26 3-15 5-17 7-21 9-19 8-13h2l2-5 11-14 9-11 5-5 8-9 4-6 2-5v-12l-4-8-2-1v-2h-2l-5-6-13-10-14-11-15-10-10-6-11-7-25-15-8-5-14-8-10-6-11-7-12-6-10-6-18-11-19-12-20-14-14-10-14-12-10-9-3-2v-2h-2v-2h-2l-7-8-12-14-10-14-10-18-6-14-7-25-2-14v-28l2-15 5-19 5-14 7-14 8-13 6-9 9-13h2l2-4 12-13 11-12 4-5h2v-2h2l2-4 13-12 10-10 12-19 4-7h2l1-4 4-8h2l2-5 9-14 7-10 12-16 8-11 10-14 9-12 8-9 9-11 18-20 8-10 19-19 8-7 11-10 24-16 8-5 20-9 15-4z" fill="#E35076"/>
<path transform="translate(691,691)" d="m0 0 2 1 5 22 8 20 9 17 9 15 6 8 10 13 7 7 7 8 11 11 8 7 11 9 6 4v2l5 2 15 11 21 13 6 5-1 5-7 12-8 16-4 6-6 11-9 17-8 13-7 13-6 10-8 13-12 20-8 12-5 9-12 16-11 16-15 16-10 8-12 9-20 10-19 5-14 1h-21l-18-1-25-4-30-4-35-6-19-3-10-2-39-8-15-3-14-2-29-6-26-6-23-4-19-3h-28l-17 5-14 7-9 7-9 8-8 7-13 13-7 8-11 15-5 7-5 5-5 9-8 10-7 6-6-1-3-5-1-5v-22l3-15 8-27 11-33 8-29 8-38 3-8 5-8 6-5 7-2h11l12 3 16 5 15 5 13 3 6 1h27l25-3 24-4 24-5 21-4 24-4 39-4h35l24 3 12 2 19 6 16 8 14 4 8 1 6-4 7-7 7-14 9-24 5-15 4-17 2-9 6-22 6-30 4-15 2-12 4-19 4-16 5-19 4-13 6-26 7-23z" fill="#E35076"/>
<path transform="translate(1219,19)" d="m0 0h35l17 3 21 8 13 7 11 9 10 9 10 14 9 19 5 18 1 7v22l-2 13-4 19-8 23-9 19-11 17-11 13-15 12-15 8-14 5-13 2h-16l-19-3-15-5-16-8-14-8-5-4-11-8v-2h-2v-2h-2l-7-8-6-7-9-14-7-16-3-11-1-7v-25l3-16 3-14 5-12 6-13 6-11 11-14 6-7 8-7 3-1v-2l20-12 18-7z" fill="#E35076"/>
<path transform="translate(1123,533)" d="m0 0 3 1v22l7 18 8 17 6 10 6 11 16 24 13 18 7 8 9 11 12 14 9 11 6 7 7 8 32 32 7 8 9 10 16 15 3 3v3h-17l-20-6-32-11-10-6-11-6-25-14-10-6-11-6-14-9-18-13-11-9-9-7-4-5-18-14-8-8-8-7-3-3v-2l-4-2-3-4v-2h-2l-18-22-8-10-5-8-1-7 7-8 9-7h2v-2l11-7 15-9 11-7 17-11 17-9z" fill="#E35076"/>
</svg>
