<?xml version="1.0" encoding="UTF-8"?>
<svg version="1.1" viewBox="0 0 1394 1550" width="1394" height="1550" xmlns="http://www.w3.org/2000/svg">
<path transform="translate(1305,234)" d="m0 0h3l1 5v37l-2 23-3 22-5 24-8 25-4 13-11 29-10 22-13 23-6 10-14 21-22 28-28 28-6 5-7 4-10 5-8 2h-18l-21-4-13-4-16-6-20-8-15-7-10-4-20-11-15-8-13-8-7-4-16-9-5-1-7 14-7 11-13 14-8 7-12 11-16 15-28 28-5 6-8 7-11 12-23 23-1 2h-2l-2 4-9 9-7 8-12 13-7 8-12 13-9 11-8 8-1 2h-2l-2 4-9 9-7 8-11 12-9 11-8 11-6 16-12 30-8 16-11 23-12 23-11 19-10 17-15 25-10 15-13 20-12 18-8 11-7 10-14 19-7 9-8 9-9 11-9 10-7 9-10 13-7 8-21 21-7 8-14 13-6 7-8 7-11 12-8 7-6 7-8 7-8 8-5 6-8 7-5 4-7 8-12 11-2 3h-2l-2 4-16 15-24 24-8 7-15 15-5 6-29 29-9 11-11 18-4 12-1 5v30l4 27 5 15 8 16 5 9 7 16v8l-4 7-3 1h-9l-14-6-10-8-8-7-8-9-6-8-6-10-4-5-6-12-9-15-8-17-10-19-5-8-6-11-4-7-4-10v-12l5-10 7-7h2l1-3 18-10 18-11 7-8 9-12 6-11 10-19 6-12 11-23 12-25 6-11 10-19 12-20 6-9 8-11 8-10 3-3 7-8 15-15 8-7 10-8 10-9 10-8 12-12 12-17 9-15 10-18 11-23 7-16 12-30 15-44 2-8 10-35 4-13 15-50 7-25 6-22 8-26 8-23 12-23 10-14 9-11 5-6h2l2-4 9-8 6-7 8-7 10-9 15-14 10-9 23-23 9-11 13-18 7-11 12-20 6-11 8-15 6-12 10-19 9-16 8-15 13-21 8-12 16-21 10-11 7-8 12-12 11-9 16-12 16-8 12-5 20-4h11l17 3 15 6 11 7 11 9 3 3 33 15 21 14 9 8 11 9 12 11 6 4 12 12 7 5 5 6 8 7 15 14 11 10 11 9 10 10 15 11 8 4 6-2 11-9 11-10h2l2-4 15-14 3-4h2l2-4 8-8 9-11 9-10 7-9 11-14 14-20 10-13 9-14 7-9 14-22 14-23 6-9z" fill="#E55177"/>
<path transform="translate(830,680)" d="m0 0 10 1 48 17 24 9 9 4 16 7 13 5 16 8 23 12 15 10 13 9 11 9 5 5 10 13 8 15 4 12 2 16v19l-4 18-7 16-9 13-8 10-11 13-22 22-4 3h-2l-2 5-11 10-8 7-8 8-11 9-20 18-11 9-8 7-5 5-10 8-5 5-17 16-11 10-22 22-7 8-9 12-5 10-1 4v17l2 10 4 11 4 10 9 17 5 9 7 11 9 11 11 15 4 8 1 3v7l-4 6-2 1h-7l-12-5-16-8-13-9-16-12-9-7-10-6-18-13-16-9-16-8-12-8-6-8-2-7v-12l3-8 4-6 7-9 4-2 2-5h2l2-4 11-15 9-13 8-13 6-11 6-10 9-19 8-15 4-10 13-26 3-7 6-10 8-16 6-9 3-6 14-20 10-13 19-19 11-9 3-2 1-3-24-4-14-2-30-3-14-2-21-2-33-4-30-4-16-3 1-7 9-20 6-16 8-16 7-10 18-20 15-16 9-11 16-17 7-8 8-10z" fill="#E55177"/>
<path transform="translate(987,35)" d="m0 0h28l19 3 15 5 15 8 14 10 6 5 9 11 7 10 7 16 5 21v27l-5 25-6 19-9 21-11 19-16 17-10 8-17 9-14 4-5 1h-29l-19-5-17-6-10-6-11-7-13-11-11-11-6-8-8-12-7-17-3-14v-28l4-20 6-19 8-16 5-9 10-13 12-12 14-10 20-10 17-4z" fill="#E55177"/>
<path transform="translate(604,206)" d="m0 0h29l33 3 15 2 24 5 40 10 26 7 39 13 13 5-1 3-14 7-18 12-8 6-3 3-8 7-16 16-7 8-8 10-10 13-9 13-4 1-27-14-26-13-10-4-18-6-9-2h-10l-22 7-21 10-19 10-15 8-13 8-10 6-10 7-13 10-11 8-9 8-10 8-13 12-7 6-6 7-5 5-10 9-7 8-11 12-7 8-14 15-2-1 3-18 7-25 6-17 6-15 8-16 9-19 10-16 9-14 10-15 8-10 8-11 12-13 11-12 16-16 11-9 8-7 11-8 15-11 20-11 6-4 14-6z" fill="#E55177"/>
<path transform="translate(1305,231)" d="m0 0h4l2 4 1 18v15l-1 17-2 21-3 17-2 11-3 12-4 14-4 12-3 10-7 19-5 12-3 5-4 11-7 14h-2l-1 5-6 11-7 12-11 15-6 9h-2l-1 5-4 2-2 5h-2l-2 4-8 10h-2l-2 4-6 7-4 1-2 4-3 1v2h-2v2l-11 9-9 6-9 4-12 2h-9l-16-2-16-4-9-3-7-3-9-3-18-7-8-4-10-4-20-10-13-8-7-3-15-9-11-6-8-5-5-2-4 1-3 7-7 12-8 9h-2l-2 4-8 8h-2v2l-11 9-8 8h-2v2l-8 7-15 15-1 2h-2v2l-5 5h-2v2h-2l-2 4-3 1-2 4-8 8h-2l-2 4-16 16-2 3h-2v2h-2v2h-2l-2 4-14 14-1 2h-2v2h-2l-2 4-7 8-1 2h-2l-2 4-3 1-2 4-7 8h-2l-2 4-6 7h-2l-2 4-8 10-18 18-3 4h-2l-2 4-3 1-2 5-7 7-1 2h-2l-2 5h-2l-2 4-7 10-2 3-3 11-2 2-4 13-5 11-5 10-4 10-7 15h-2l-1 5-5 10-3 7-8 14h-2l-1 5-4 8-6 9-4 8-5 7-6 12-6 8-4 7h-2l-1 4-7 11-4 7-8 11-3 5h-2l-1 5-11 16h-2l-1 5h-2v2h-2l-1 5h-2l-5 10h-2v2h-2l-2 4-5 8h-2l-2 4-4 5h-2l-2 4-5 7h-2l-2 4-3 4h-2v2l-4 4-6 8h-2l-1 5-5 5-7 8-8 10-6 5h-2l-2 4-16 17-3 1v2l-8 7-4 5-8 7-4 2-2 5h-2v2h-2l-1 3-6 5-5 5-5 6-8 7-4 2-1 3-16 16h-2l-1 3-8 7-5 5h-2l-2 4-20 20-7 8-4 1-2 4-5 5-8 7-5 5h-2v2h-2l-2 4-3 1v2h-2l-2 4-5 6-5 2-2 5-12 12-8 7h-2v2h-2l-2 4-8 10-8 9-10 20-2 9-1 15 2 25 2 16 4 11 3 9 4 8 5 8 4 7 6 16v9l-4 6h-2v2l-2 1h-9l-16-6-12-9v-2h-3v-2l-4-2-1-3h-2v-2h-2v-3h-2v-2l-3-1-7-10-7-11-6-11-4-7v-3h-2l-7-12-4-10-5-9-2-5-10-17-1-3-4-4-7-15-2-7v-12l6-11 6-7 6-5 7-3 6-4h2v-2l6-2 5-3h3v-2l6-4 5-6 3-3 6-8 1-3h2l3-9 6-10 8-16 7-15 10-21 8-16 3-7 10-17 6-10 3-7 4-5 4-7 6-9 3-5 8-10 5-5 6-8 6-5 6-7h2v-2l8-7 15-13 8-7h2v-2l5-3h2l2-4 6-5 1-2h2l2-4 6-8h2l1-4 7-11 8-13 13-26 4-7 5-13 6-11 3-9 4-9 4-13 3-8 9-27 1-1 1-7 6-18 2-10 3-7 7-26 2-3 4-16 3-9 3-12 2-5 4-17 3-8 3-12 2-5 3-12 6-18 3-10 4-8 3-9 8-14 6-9 1-3h2l2-4 3-5h2l2-4 7-8 22-22h2v-2l5-2v-2l8-7 8-8 8-7h2v-2l8-7 15-15 1-2h2v-2l3-3h2v-2h2l2-5 9-10 3-5 4-5 1-3h2l1-4 8-12 1-3h2l1-4 2-4h2l1-4 4-9h2l1-5 6-12 7-13 6-11 3-7 8-14 6-10 6-11 9-15 12-18h2l2-5 5-7h2l2-4 6-8h2l2-4 5-6h2v-2h2l2-4 3-1v-2l8-7h2v-2l9-7 3-1v-2l8-5h2v-2l17-8 8-4 6-2 9-2 4-1h22l15 3 24 12v2h2v2l4 2 6 5v2l10 3 6 4 10 4 11 5 15 10 11 9 5 4v2l5 2 4 3v2l4 2 1 3h3v2l4 2 5 4v2l4 2 11 10 8 7 5 4 5 5v2l4 2 1 3h3v2h2v2l4 2 7 6v2h2l3 4 5 3 14 14 5 3v2h2v2l4 2 11 6 5-1 5-2v-2l11-9 9-8 5-5 13-12 2-3h2l2-4 3-4h2l2-4 3-4h2l2-4 8-10h2v-2h2l2-4 6-8h2l2-5 10-14h2v-2h2l1-5 10-14 6-8 5-8h2v-3h2l2-4 10-16 6-8 5-11 6-8 6-10 7-10 1-3zm0 3-7 12-11 17-9 15-16 24-7 9-7 11-10 13-13 19-18 22-9 10-9 11-8 8v2h-2l-7 8-13 12v2l-4 2-12 11-8 6-6 2-8-4-12-9-10-9-12-11-11-9-11-11-8-7-10-9-5-5-10-9-5-5-9-7-10-9-11-9-12-10-16-10-14-7-22-10-5-5-11-9-14-7-11-4-14-2h-11l-20 4-12 5-16 8-16 12-15 13-14 14-9 11-7 8-14 19-15 24-6 10-6 12-8 14-8 16-7 12-13 26-15 25-11 16-9 12-12 14-26 26-8 7-15 14-11 10-7 6-4 5-8 7v2h-2l-7 8-13 17-10 17-7 15-8 22-8 28-9 31-8 30-8 25-5 17-7 23-4 15-6 20-15 43-4 8-5 13-10 23-8 16-10 18-10 16-12 16-13 13-10 8-10 9-9 7-15 14-12 12-2 4-5 4-11 15-7 10-28 49-11 24-9 19-14 28-7 13-7 12-8 10-6 7-20 12-16 9-1 3-4 2-6 7-4 8v12l5 13 7 11 10 18 8 15 8 16 9 16 6 11 5 8 7 10 9 11 8 8 11 8 12 6 3 1h9l3-1 4-7v-8l-8-19-6-10-8-17-4-16-3-21v-30l3-12 7-14 7-10 12-14 27-27 11-12 13-13 8-7 27-27 8-7 1-3h2l7-8 13-12 12-12 6-5 7-8 22-22 8-7 9-10 9-8 7-8 10-9 14-15 13-13 6-7 8-10 6-8 12-14 11-13 7-8 12-16 20-28 9-13 12-18 14-22 6-9 11-19 8-13 11-19 10-18 21-42 5-12 14-35 4-9 11-14 9-10 7-8 15-16 2-4h2l7-8 10-11 7-8 11-12 9-10 7-8 14-15 2-4h2l7-8 5-4 7-8 13-13 7-8 8-7 7-8 31-31 8-7 7-7 8-7 12-11 9-12 8-14 2-5 5 1 11 6 9 6 11 6 10 6 12 6 10 6 14 7 10 4 21 9 15 6 15 5 22 5 6 1h18l13-4 9-6 5-3 12-11 21-21 8-10 10-13 7-10 10-15 9-15 10-18 12-27 7-18 5-14 4-14 5-16 5-24 4-29 1-16v-37l-1-5z" fill="#F4E3E9"/>
<path transform="translate(828,678)" d="m0 0h11l16 6 11 3 2 2 7 1 9 4 8 3 9 3 5 3 9 3 8 4 9 3 20 8 7 4 12 6 8 5 10 4 3 2v2l5 1 3 2v2l6 2 13 9 8 6 6 7v2l4 2 8 10 5 9 4 7 3 12 2 5 1 17v11l-1 9-4 14-8 17-4 5-6 10-2 3h-2l-2 4-3 1-1 4-6 8-7 5-1 2h-2l-2 4-4 5-14 11-7 8-3 3h-2v2l-6 4-7 8h-2v2l-7 5h-2v2l-3 3h-2v2l-9 7-5 5h-2v2l-6 5h-2v2l-9 7-10 10h-2l-1 3-10 8-3 1v2l-8 7-3 3h-3l-1 4-5 6-6 4h-2l-2 4-8 8-7 9-5 5-8 7-7 11-5 9v18l5 17 3 8 8 16 6 10 7 12 11 14 11 15 5 10 1 10-3 6-5 3h-12l-2-2-10-4-8-3-8-5-8-6v-2l-10-5v-2l-5-2-14-10v-2l-5-1-3-3-4-2-3-3-5-3-13-9-7-3v-2l-7-1-3-2v-2l-6-1-11-7-6-5-5-8-2-7v-9l3-11 6-10h2v-3h2v-2l5-5 5-7h2l2-4 8-11 2-3h2l2-4 4-7 3-2 3-8 6-11 6-10 3-6 8-14 3-7 9-19 5-10 8-17 7-14 5-9 7-12 2-4h2l1-5 2-4h2l2-6 12-16h2l1-4 2-3h2l2-5 3-3h2v-2l5-2 2-5 8-7h2v-2h2v-2l6-5-6-2-16-2-2-1-16-1-2-1-16-1-16-2-15-2-15-1-3-1-14-1-2-1-18-2-2-1-13-1-16-2-6-3-2-5 3-5 3-9 5-13 6-11 4-10h2l1-5 4-8 4-6h2l2-4 4-5h2l1-3h2l2-4 2-3h2v-2l3-3h2v-2h2l3-6h2l2-4 3-4h2l2-4 3-1 2-5 5-5 8-9h2v-2h2l2-5h2l2-4 6-8zm2 2-10 8-9 11-15 16-7 8-13 15-14 15-9 10-8 9-6 10-9 19-6 15-8 18v5l16 3 37 5 32 4 22 2 24 3 18 2 28 4 5 1-1 3-10 8-12 11-8 8-7 8-7 9-12 18-3 4-6 11-6 10-6 12-5 8-4 10-9 19-4 8-8 17-9 17-6 12-6 10-7 12-8 12-10 13-6 8v2h-2l-2 5-4 2-9 11-3 5-2 7v12l3 9 6 7 13 8 16 8 14 8 18 13 10 6 10 8 11 8 14 10 14 8 14 6 3 1h7l5-5 1-2v-7l-4-10-8-10-8-11-7-9-9-14-12-24-6-17-2-10v-17l4-11 10-14 7-7 7-8 17-17 15-14 13-12 5-5 10-8 5-5 11-9 14-13 8-7 14-12 8-7 8-8 11-9 4-5v-2l4-2 8-7 7-6 7-8 11-12 10-13 9-13 7-16 4-18v-19l-2-16-5-14-8-15-9-11-5-5-11-9-14-10-18-11-23-12-21-10-10-4-18-7-11-5-17-6-16-6-33-11z" fill="#F4E3E9"/>
<path transform="translate(606,203)" d="m0 0h21l6 1 18 1 4 1 21 2 14 2 9 2 15 4 14 3 20 5 7 2 18 5 10 4 21 6 6 3 9 2 8 5v3l-8 5-8 3-5 4-4 2h-3v2l-5 3h-2v2l-9 6-4 4h-2v2l-8 7-11 12h-2l-2 4-2 3h-2l-2 4-6 8h-2l-2 5-12 16-3 5h-3v2l-9-3-11-6-15-8-10-5-15-7-17-6-6-2-7-2h-16l-10 4h-6v2l-6 3-10 3-9 6-7 3-16 8-4 1v2l-9 5h-2v2l-12 6-6 4h-2v2l-8 5h-2v2l-11 8-5 2v2h-2v2l-5 2-2 4-5 2v2l-5 3h-2v2h-2v2h-2l-2 4-6 5h-2l-2 4-5 2-3 6h-2l-2 4-11 9-9 11-7 7-7 8-5 6h-2l-2 4-5 6h-2v2h-2v2l-4 3-4-1-1-4 3-13 3-16 4-12 3-7 3-11 7-17 6-13h2l1-4 5-11 9-17 3-3 2-5 3-4 3-5 4-4 3-6h2l1-5 7-9h2l2-6 10-13h2v-2h2l1-3h2l2-5 19-19h2v-2h2l1-3 5-2v-2h2v-2l8-7 10-8 11-8 4-1v-2l8-6 17-9 2-2h4v-2l10-5 14-5 9-1zm-2 3-16 4-14 6-13 8-14 8-28 21-12 11-8 7-18 18-7 8-9 10-7 10-8 10-10 15-9 14-6 9-14 28-8 17-7 17-8 25-3 12-3 18h3l7-7 7-8 11-12 7-8 10-11 7-6 5-5 7-8 8-7 13-12 12-9 10-9 6-4 13-10 9-6 25-15 17-9 19-10 22-10 17-5h10l19 5 12 5 10 4 28 14 21 11 4-1 13-18 7-9 9-11 14-15 13-13 4-2 5-5 14-10 11-7 12-6v-2l-13-5-21-7-28-9-35-9-12-3-15-3-18-4-27-3-21-2z" fill="#F4E3E9"/>
<path transform="translate(999,32)" d="m0 0h10l13 1 11 3 16 4 10 6 11 6 3 2v2l4 1 3 2v2l4 2 1 3h2v2h2l8 10v2h2l5 10 3 8 6 18 2 12v19l-2 15-3 12-3 8-3 13-4 7-3 9-8 16-7 10-2 3h-2v2h-2l-2 4-6 6h-2l-2 4-3 1v2l-11 7-10 5-5 2-14 3-9 1h-14l-14-2-12-3-12-5-9-3-13-8-6-4v-2l-4-1v-2h-3v-2l-4-2-13-13v-2h-2l-5-7v-2h-2v-3l-3-1-4-8-4-10-4-13-2-8v-24l2-8 1-9 4-15 8-21 6-10 5-9 3-4h2l2-4 3-4h2v-2l3-3h2v-2l5-2v-2l11-8 8-4 4-3 10-4 10-3 9-2zm-12 3-19 4-11 4-10 6-7 4-12 9-12 12-8 11-10 18-6 16-4 13-3 17v28l4 16 6 15 10 15 12 13 7 7 15 11 14 8 12 5 16 5 9 2h29l16-4 17-8 12-9 10-10 9-11 10-18 10-24 7-27 2-12v-27l-5-21-7-16-7-10-12-14-14-10-14-8-12-5-18-4-8-1z" fill="#F4E3E9"/>
</svg>
